<svg width="579" height="451" viewBox="0 0 579 451" fill="none" xmlns="http://www.w3.org/2000/svg">
<path opacity="0.4" d="M546.91 205.819L451.024 151.281L425.692 165.877L425.639 165.847V194.819L521.662 249.311L546.971 234.761V205.781L546.91 205.819Z" fill="url(#paint0_linear_613_2)"/>
<path d="M450.947 180.406V209.378L425.639 194.82V165.848L450.947 180.406Z" fill="#25A9F2"/>
<path d="M450.948 180.406V209.378L476.249 194.82V165.848L450.948 180.406Z" fill="#3BC9F8"/>
<path d="M451.024 151.281L476.248 165.908L450.856 180.534L425.639 165.908L451.024 151.281Z" fill="#1F9FEA"/>
<path opacity="0.4" d="M542.391 204.687L446.497 150.156L421.166 164.752L421.112 164.722V193.694L517.136 248.186L542.445 233.628V204.656L542.391 204.687Z" fill="url(#paint1_linear_613_2)"/>
<path d="M446.421 179.273V208.253L421.112 193.695V164.723L446.421 179.273Z" fill="#25A9F2"/>
<path d="M446.422 179.273V208.253L471.73 193.695V164.723L446.422 179.273Z" fill="#3BC9F8"/>
<path d="M446.497 150.156L471.722 164.783L446.337 179.409L421.112 164.783L446.497 150.156Z" fill="#1F9FEA"/>
<path d="M578.35 161.849L578.327 170.69L360.697 44.418L360.309 181.196L577.938 307.469L578.35 161.849Z" fill="url(#paint2_linear_613_2)"/>
<path d="M360.721 35.5752L360.698 44.4165L578.328 170.689L578.351 161.847L360.721 35.5752Z" fill="url(#paint3_linear_613_2)"/>
<g opacity="0.8">
<g opacity="0.8">
<path opacity="0.8" d="M460.689 143.846L460.666 149.312L480.535 160.928L480.55 155.462L460.689 143.846Z" fill="#50C5FF"/>
</g>
<g opacity="0.8">
<path opacity="0.8" d="M471.263 188.873L471.24 194.339L479.14 198.961L479.156 193.495L471.263 188.873Z" fill="#50C5FF"/>
</g>
<g opacity="0.8">
<path opacity="0.8" d="M430.085 193.929L430.069 199.402L452.498 212.516L452.513 207.042L430.085 193.929Z" fill="#50C5FF"/>
</g>
<g opacity="0.8">
<path opacity="0.8" d="M455.951 209.05L455.936 214.523L481.861 229.682L481.876 224.209L455.951 209.05Z" fill="#50C5FF"/>
</g>
<g opacity="0.8">
<g opacity="0.8">
<path opacity="0.8" d="M444.34 173.139L444.332 178.605L466.753 191.718L466.769 186.252L444.34 173.139Z" fill="#50C5FF"/>
</g>
<g opacity="0.8">
<path opacity="0.8" d="M440.669 190.41L440.653 195.876L491.499 225.608L491.522 220.142L440.669 190.41Z" fill="#50C5FF"/>
</g>
<g opacity="0.8">
<path opacity="0.8" d="M445.172 183.323L445.156 188.797L500.794 221.327L500.809 215.861L445.172 183.323Z" fill="#50C5FF"/>
</g>
<g opacity="0.8">
<path opacity="0.8" d="M455.289 160.115L455.281 165.581L477.71 178.695L477.725 173.229L455.289 160.115Z" fill="#50C5FF"/>
</g>
<g opacity="0.8">
<path opacity="0.8" d="M445.224 163.938L445.209 169.404L488.825 194.91L488.84 189.444L445.224 163.938Z" fill="#50C5FF"/>
</g>
<g opacity="0.8">
<path opacity="0.8" d="M455.745 150.673L455.729 156.139L496.245 179.827L496.252 174.354L455.745 150.673Z" fill="#50C5FF"/>
</g>
<g opacity="0.8">
<path opacity="0.8" d="M482.425 175.981L482.402 181.447L513.166 199.434L513.181 193.968L482.425 175.981Z" fill="#50C5FF"/>
</g>
<g opacity="0.8">
<path opacity="0.8" d="M500.047 176.565L500.024 182.039L505.502 185.24L505.517 179.774L500.047 176.565Z" fill="#EE4BF7"/>
</g>
<g opacity="0.8">
<path opacity="0.8" d="M485.677 158.458L485.662 163.924L516.631 182.04L516.654 176.574L485.677 158.458Z" fill="#50C5FF"/>
</g>
<g opacity="0.8">
<path opacity="0.8" d="M508.338 161.991L508.322 167.465L527.757 178.83L527.772 173.364L508.338 161.991Z" fill="#50C5FF"/>
</g>
</g>
<g opacity="0.8">
<path opacity="0.8" d="M474.174 142.021L474.159 147.494L494.021 159.103L494.036 153.637L474.174 142.021Z" fill="#50C5FF"/>
</g>
<g opacity="0.8">
<path opacity="0.8" d="M483.194 127.874L483.179 133.34L511.382 149.837L511.39 144.363L483.194 127.874Z" fill="#1CF2EC"/>
</g>
<g opacity="0.8">
<path opacity="0.8" d="M443.174 133.606L443.151 139.072L455.12 146.066L455.128 140.6L443.174 133.606Z" fill="#50C5FF"/>
</g>
<g opacity="0.8">
<path opacity="0.8" d="M442.26 152.497L442.245 157.963L450.572 162.836L450.595 157.37L442.26 152.497Z" fill="#50C5FF"/>
</g>
<g opacity="0.8">
<path opacity="0.8" d="M444.751 144.241L444.735 149.707L451.462 153.637L451.478 148.172L444.751 144.241Z" fill="#1CF2EC"/>
</g>
<g opacity="0.8">
<path opacity="0.8" d="M446.832 126.034L446.816 131.5L469.245 144.614L469.253 139.148L446.832 126.034Z" fill="#50C5FF"/>
</g>
<g opacity="0.8">
<path opacity="0.8" d="M461.382 124.833L461.367 130.299L476.109 138.92L476.124 133.446L461.382 124.833Z" fill="#50C5FF"/>
</g>
<g opacity="0.8">
<path opacity="0.8" d="M456.277 112.137L456.27 117.603L478.698 130.724L478.714 125.25L456.277 112.137Z" fill="#1CF2EC"/>
</g>
<g opacity="0.8">
<path opacity="0.8" d="M420.738 120.484L420.73 125.958L443.152 139.072L443.174 133.606L420.738 120.484Z" fill="#50C5FF"/>
</g>
<g opacity="0.8">
<path opacity="0.8" d="M420.227 149.327L420.22 154.793L442.222 167.656L442.237 162.19L420.227 149.327Z" fill="#50C5FF"/>
</g>
<g opacity="0.8">
<path opacity="0.8" d="M432.591 166.264L432.576 171.73L440.484 176.352L440.499 170.886L432.591 166.264Z" fill="#1CF2EC"/>
</g>
<g opacity="0.8">
<path opacity="0.8" d="M428.79 183.461L428.774 188.927L435.829 193.055L435.852 187.589L428.79 183.461Z" fill="#1CF2EC"/>
</g>
<g opacity="0.8">
<path opacity="0.8" d="M540.804 171.274L540.789 176.74L546.556 180.116L546.572 174.65L540.804 171.274Z" fill="#EE4BF7"/>
</g>
<g opacity="0.8">
<path opacity="0.8" d="M532.113 156.481L532.098 161.947L551.532 173.313L551.555 167.847L532.113 156.481Z" fill="#EE4BF7"/>
</g>
<g opacity="0.8">
<path opacity="0.8" d="M497.236 155.507L497.221 160.98L503.628 164.728L503.651 159.255L497.236 155.507Z" fill="#EE4BF7"/>
</g>
<g opacity="0.8">
<path opacity="0.8" d="M533.491 186.417L533.468 191.883L546.503 199.5L546.526 194.034L533.491 186.417Z" fill="#EE4BF7"/>
</g>
<g opacity="0.8">
<path opacity="0.8" d="M533.439 205.811L533.424 211.277L546.451 218.894L546.467 213.428L533.439 205.811Z" fill="#EE4BF7"/>
</g>
<g opacity="0.8">
<path opacity="0.8" d="M493.404 192.112L493.389 197.578L500.322 201.63L500.337 196.164L493.404 192.112Z" fill="#EE4BF7"/>
</g>
<g opacity="0.8">
<path opacity="0.8" d="M533.377 225.196L533.361 230.67L546.397 238.287L546.412 232.821L533.377 225.196Z" fill="#EE4BF7"/>
</g>
<g opacity="0.8">
<path opacity="0.8" d="M504.42 217.974L504.404 223.44L510.583 227.051L510.598 221.577L504.42 217.974Z" fill="#EE4BF7"/>
</g>
<g opacity="0.8">
<path opacity="0.8" d="M484.078 196.369L484.062 201.835L516.533 220.818L516.54 215.352L484.078 196.369Z" fill="#50C5FF"/>
</g>
<g opacity="0.8">
<path opacity="0.8" d="M510.629 182.762L510.613 188.228L527.702 198.217L527.717 192.751L510.629 182.762Z" fill="#50C5FF"/>
</g>
<g opacity="0.8">
<path opacity="0.8" d="M524.304 181.052L524.289 186.51L529.63 189.635L529.645 184.169L524.304 181.052Z" fill="#EE4BF7"/>
</g>
<g opacity="0.8">
<path opacity="0.8" d="M507.154 200.155L507.139 205.621L527.648 217.61L527.663 212.144L507.154 200.155Z" fill="#50C5FF"/>
</g>
<g opacity="0.8">
<path opacity="0.8" d="M524.251 200.438L524.235 205.903L529.576 209.028L529.591 203.562L524.251 200.438Z" fill="#EE4BF7"/>
</g>
<g opacity="0.8">
<path opacity="0.8" d="M493.852 240.926L493.837 246.399L509.798 255.735L509.813 250.261L493.852 240.926Z" fill="#50C5FF"/>
</g>
<g opacity="0.8">
<g opacity="0.8">
<path opacity="0.8" d="M503.459 227.12L503.443 232.594L516.471 240.211L516.486 234.737L503.459 227.12Z" fill="#50C5FF"/>
</g>
<g opacity="0.8">
<path opacity="0.8" d="M495.117 231.954L495.109 237.428L527.541 256.395L527.557 250.922L495.117 231.954Z" fill="#50C5FF"/>
</g>
<g opacity="0.8">
<path opacity="0.8" d="M514.575 223.911L514.56 229.385L527.595 237.002L527.61 231.529L514.575 223.911Z" fill="#50C5FF"/>
</g>
</g>
<g opacity="0.8">
<path opacity="0.8" d="M524.197 219.829L524.182 225.295L529.522 228.42L529.537 222.954L524.197 219.829Z" fill="#EE4BF7"/>
</g>
<g opacity="0.8">
<path opacity="0.8" d="M533.325 244.537L533.317 250.003L546.345 257.628L546.36 252.154L533.325 244.537Z" fill="#EE4BF7"/>
</g>
<g opacity="0.8">
<path opacity="0.8" d="M524.143 239.168L524.128 244.634L529.468 247.758L529.484 242.285L524.143 239.168Z" fill="#EE4BF7"/>
</g>
<g opacity="0.8">
<path opacity="0.8" d="M482.318 234.183L482.303 239.649L489.175 243.67L489.19 238.197L482.318 234.183Z" fill="#EE4BF7"/>
</g>
<g opacity="0.8">
<path opacity="0.8" d="M485.663 226.429L485.647 231.895L490.599 234.791L490.615 229.325L485.663 226.429Z" fill="#EE4BF7"/>
</g>
<g opacity="0.8">
<path opacity="0.8" d="M554.983 198.985L554.968 204.451L568.643 212.449L568.651 206.983L554.983 198.985Z" fill="#50C5FF"/>
</g>
<g opacity="0.8">
<path opacity="0.8" d="M555.013 189.291L554.998 194.757L568.666 202.754L568.681 197.281L555.013 189.291Z" fill="#50C5FF"/>
</g>
<g opacity="0.8">
<path opacity="0.8" d="M555.037 179.599L555.021 185.065L568.689 193.062L568.704 187.589L555.037 179.599Z" fill="#50C5FF"/>
</g>
<g opacity="0.8">
<path opacity="0.8" d="M555.067 169.898L555.052 175.364L568.719 183.362L568.735 177.896L555.067 169.898Z" fill="#50C5FF"/>
</g>
<g opacity="0.8">
<path opacity="0.8" d="M503.673 149.562L503.665 155.028L528.014 169.267L528.021 163.801L503.673 149.562Z" fill="#50C5FF"/>
</g>
<g opacity="0.8">
<path opacity="0.8" d="M514.597 146.241L514.582 151.707L527.61 159.325L527.625 153.859L514.597 146.241Z" fill="#50C5FF"/>
</g>
<g opacity="0.8">
<path opacity="0.8" d="M426.749 114.289L426.733 119.763L442.755 129.128L442.77 123.655L426.749 114.289Z" fill="#50C5FF"/>
</g>
<g opacity="0.8">
<path opacity="0.8" d="M441.331 103.395L441.315 108.86L453.277 115.854L453.292 110.389L441.331 103.395Z" fill="#50C5FF"/>
</g>
<g opacity="0.8">
<path opacity="0.8" d="M480.818 136.198L480.803 141.664L500.458 153.159L500.474 147.685L480.818 136.198Z" fill="#50C5FF"/>
</g>
<g opacity="0.8">
<path opacity="0.8" d="M554.877 237.771L554.861 243.237L568.529 251.226L568.544 245.76L554.877 237.771Z" fill="#50C5FF"/>
</g>
<g opacity="0.8">
<path opacity="0.8" d="M554.908 228.071L554.885 233.537L568.56 241.527L568.575 236.069L554.908 228.071Z" fill="#50C5FF"/>
</g>
<g opacity="0.8">
<path opacity="0.8" d="M554.93 218.377L554.915 223.843L568.582 231.833L568.598 226.367L554.93 218.377Z" fill="#50C5FF"/>
</g>
<g opacity="0.8">
<path opacity="0.8" d="M554.953 208.684L554.938 214.15L568.613 222.139L568.628 216.673L554.953 208.684Z" fill="#50C5FF"/>
</g>
<g opacity="0.8">
<path opacity="0.8" d="M554.846 247.455L554.831 252.929L568.499 260.926L568.514 255.453L554.846 247.455Z" fill="#50C5FF"/>
</g>
<g opacity="0.8">
<path opacity="0.8" d="M554.763 276.549L554.755 282.015L568.423 290.012L568.438 284.539L554.763 276.549Z" fill="#50C5FF"/>
</g>
<g opacity="0.8">
<path opacity="0.8" d="M554.793 266.849L554.777 272.322L568.445 280.32L568.46 274.839L554.793 266.849Z" fill="#50C5FF"/>
</g>
<g opacity="0.8">
<path opacity="0.8" d="M554.816 257.156L554.801 262.622L568.476 270.62L568.491 265.146L554.816 257.156Z" fill="#50C5FF"/>
</g>
<g opacity="0.8">
<path opacity="0.8" d="M494.607 221.943L494.592 227.409L500.237 230.716L500.26 225.25L494.607 221.943Z" fill="#50C5FF"/>
</g>
<g opacity="0.8">
<path opacity="0.8" d="M514.498 252.997L514.482 258.471L527.51 266.088L527.525 260.622L514.498 252.997Z" fill="#50C5FF"/>
</g>
</g>
<g opacity="0.8">
<path opacity="0.8" d="M22.5742 103.539L22.6047 112.639L200.748 9.40918L201.152 150.179L23.0009 253.409L22.5742 103.539Z" fill="url(#paint4_linear_613_2)"/>
</g>
<path d="M200.725 0.301758L200.748 9.40916L22.6047 112.639L22.5742 103.539L200.725 0.301758Z" fill="url(#paint5_linear_613_2)"/>
<g opacity="0.8">
<g opacity="0.8">
<path opacity="0.8" d="M73.8083 192.303L73.8236 197.784L68.7496 200.703L68.7344 195.23L73.8083 192.303Z" fill="#50C5FF"/>
</g>
<g opacity="0.8">
<path opacity="0.8" d="M73.8386 202.01L73.8538 207.491L68.7799 210.41L68.7646 204.929L73.8386 202.01Z" fill="#50C5FF"/>
</g>
<g opacity="0.8">
<path opacity="0.8" d="M82.0066 119.535L82.0218 125.001L76.9479 127.928L76.9326 122.454L82.0066 119.535Z" fill="#50C5FF"/>
</g>
<g opacity="0.8">
<path opacity="0.8" d="M82.0289 129.234L82.0518 134.708L76.9779 137.635L76.9551 132.161L82.0289 129.234Z" fill="#50C5FF"/>
</g>
<g opacity="0.8">
<path opacity="0.8" d="M82.0593 138.942L82.0745 144.416L77.0082 147.343L76.9854 141.869L82.0593 138.942Z" fill="#50C5FF"/>
</g>
<g opacity="0.8">
<path opacity="0.8" d="M82.0895 148.651L82.1048 154.125L77.0309 157.044L77.0156 151.571L82.0895 148.651Z" fill="#50C5FF"/>
</g>
<g opacity="0.8">
<path opacity="0.8" d="M82.114 158.358L82.1292 163.832L77.0553 166.751L77.04 161.278L82.114 158.358Z" fill="#50C5FF"/>
</g>
<g opacity="0.8">
<path opacity="0.8" d="M82.1433 168.06L82.1585 173.541L77.0846 176.46L77.0693 170.979L82.1433 168.06Z" fill="#50C5FF"/>
</g>
<g opacity="0.8">
<path opacity="0.8" d="M82.1657 177.767L82.181 183.24L77.107 186.167L77.0918 180.686L82.1657 177.767Z" fill="#50C5FF"/>
</g>
<g opacity="0.8">
<path opacity="0.8" d="M82.196 187.476L82.2112 192.949L77.1373 195.876L77.1221 190.395L82.196 187.476Z" fill="#50C5FF"/>
</g>
<g opacity="0.8">
<path opacity="0.8" d="M82.2186 197.177L82.2415 202.658L77.1675 205.577L77.1523 200.104L82.2186 197.177Z" fill="#50C5FF"/>
</g>
<g opacity="0.8">
<path opacity="0.8" d="M90.3329 95.291L90.3558 100.765L85.2742 103.684L85.2666 98.2102L90.3329 95.291Z" fill="#50C5FF"/>
</g>
<g opacity="0.8">
<path opacity="0.8" d="M90.3639 104.998L90.3792 110.464L85.3129 113.391L85.29 107.917L90.3639 104.998Z" fill="#50C5FF"/>
</g>
<g opacity="0.8">
<path opacity="0.8" d="M90.3942 114.7L90.4095 120.174L85.3356 123.093L85.3203 117.627L90.3942 114.7Z" fill="#50C5FF"/>
</g>
<g opacity="0.8">
<path opacity="0.8" d="M90.4233 124.407L90.431 129.881L85.3646 132.8L85.3418 127.326L90.4233 124.407Z" fill="#50C5FF"/>
</g>
<g opacity="0.8">
<path opacity="0.8" d="M90.446 134.115L90.4613 139.589L85.3873 142.508L85.3721 137.034L90.446 134.115Z" fill="#50C5FF"/>
</g>
<g opacity="0.8">
<path opacity="0.8" d="M90.4704 143.815L90.4933 149.289L85.4194 152.216L85.3965 146.742L90.4704 143.815Z" fill="#50C5FF"/>
</g>
<g opacity="0.8">
<path opacity="0.8" d="M90.5009 153.525L90.5238 158.999L85.4498 161.918L85.4346 156.445L90.5009 153.525Z" fill="#50C5FF"/>
</g>
<g opacity="0.8">
<path opacity="0.8" d="M90.5309 163.226L90.5461 168.707L85.4723 171.626L85.457 166.152L90.5309 163.226Z" fill="#50C5FF"/>
</g>
<g opacity="0.8">
<path opacity="0.8" d="M90.5612 172.933L90.5688 178.406L85.5025 181.333L85.4873 175.859L90.5612 172.933Z" fill="#50C5FF"/>
</g>
<g opacity="0.8">
<path opacity="0.8" d="M90.5849 182.64L90.6001 188.113L85.5262 191.04L85.5186 185.559L90.5849 182.64Z" fill="#50C5FF"/>
</g>
<g opacity="0.8">
<path opacity="0.8" d="M90.615 192.348L90.6302 197.821L85.5486 200.748L85.541 195.267L90.615 192.348Z" fill="#50C5FF"/>
</g>
<g opacity="0.8">
<path opacity="0.8" d="M98.8649 138.981L98.8801 144.463L93.8063 147.382L93.791 141.901L98.8649 138.981Z" fill="#50C5FF"/>
</g>
<g opacity="0.8">
<path opacity="0.8" d="M98.8886 148.689L98.9038 154.163L93.8298 157.09L93.8223 151.609L98.8886 148.689Z" fill="#50C5FF"/>
</g>
<g opacity="0.8">
<path opacity="0.8" d="M98.9176 158.396L98.9329 163.87L93.859 166.797L93.8438 161.316L98.9176 158.396Z" fill="#50C5FF"/>
</g>
<g opacity="0.8">
<path opacity="0.8" d="M98.949 168.097L98.9566 173.578L93.8903 176.497L93.875 171.023L98.949 168.097Z" fill="#50C5FF"/>
</g>
<g opacity="0.8">
<path opacity="0.8" d="M98.9723 177.807L98.9952 183.288L93.9213 186.207L93.8984 180.734L98.9723 177.807Z" fill="#50C5FF"/>
</g>
<g opacity="0.8">
<path opacity="0.8" d="M99.0036 187.514L99.0188 192.987L93.9449 195.914L93.9297 190.44L99.0036 187.514Z" fill="#50C5FF"/>
</g>
<g opacity="0.8">
<path opacity="0.8" d="M107.361 172.979L107.376 178.452L102.303 181.371L102.295 175.898L107.361 172.979Z" fill="#50C5FF"/>
</g>
<g opacity="0.8">
<path opacity="0.8" d="M107.39 182.686L107.406 188.159L102.332 191.078L102.316 185.605L107.39 182.686Z" fill="#50C5FF"/>
</g>
<g opacity="0.8">
<path opacity="0.8" d="M115.748 168.143L115.763 173.624L110.689 176.543L110.682 171.062L115.748 168.143Z" fill="#50C5FF"/>
</g>
<g opacity="0.8">
<path opacity="0.8" d="M115.77 177.851L115.786 183.324L110.719 186.243L110.704 180.77L115.77 177.851Z" fill="#50C5FF"/>
</g>
<g opacity="0.8">
<path opacity="0.8" d="M124.052 134.191L124.068 139.665L118.994 142.592L118.979 137.111L124.052 134.191Z" fill="#50C5FF"/>
</g>
<g opacity="0.8">
<path opacity="0.8" d="M124.083 143.9L124.098 149.374L119.024 152.293L119.009 146.82L124.083 143.9Z" fill="#50C5FF"/>
</g>
<g opacity="0.8">
<path opacity="0.8" d="M124.105 153.608L124.128 159.082L119.054 162.001L119.031 156.528L124.105 153.608Z" fill="#50C5FF"/>
</g>
<g opacity="0.8">
<path opacity="0.8" d="M124.135 163.309L124.151 168.79L119.077 171.709L119.062 166.235L124.135 163.309Z" fill="#50C5FF"/>
</g>
<g opacity="0.8">
<path opacity="0.8" d="M124.158 173.016L124.181 178.489L119.107 181.416L119.092 175.942L124.158 173.016Z" fill="#50C5FF"/>
</g>
<g opacity="0.8">
<path opacity="0.8" d="M132.356 100.241L132.372 105.715L127.298 108.642L127.29 103.168L132.356 100.241Z" fill="#50C5FF"/>
</g>
<g opacity="0.8">
<path opacity="0.8" d="M132.386 109.955L132.402 115.421L127.328 118.348L127.312 112.874L132.386 109.955Z" fill="#50C5FF"/>
</g>
<g opacity="0.8">
<path opacity="0.8" d="M132.417 119.656L132.433 125.13L127.359 128.049L127.336 122.575L132.417 119.656Z" fill="#50C5FF"/>
</g>
<g opacity="0.8">
<path opacity="0.8" d="M132.447 129.357L132.454 134.839L127.38 137.758L127.365 132.284L132.447 129.357Z" fill="#50C5FF"/>
</g>
<g opacity="0.8">
<path opacity="0.8" d="M132.47 139.064L132.486 144.546L127.412 147.465L127.396 141.991L132.47 139.064Z" fill="#50C5FF"/>
</g>
<g opacity="0.8">
<path opacity="0.8" d="M132.494 148.772L132.517 154.246L127.443 157.173L127.428 151.692L132.494 148.772Z" fill="#50C5FF"/>
</g>
<g opacity="0.8">
<path opacity="0.8" d="M132.524 158.479L132.54 163.953L127.466 166.88L127.458 161.399L132.524 158.479Z" fill="#50C5FF"/>
</g>
<g opacity="0.8">
<path opacity="0.8" d="M132.547 168.181L132.57 173.662L127.496 176.581L127.48 171.108L132.547 168.181Z" fill="#50C5FF"/>
</g>
<g opacity="0.8">
<path opacity="0.8" d="M140.691 75.9961L140.706 81.4697L135.632 84.3965L135.617 78.9229L140.691 75.9961Z" fill="#50C5FF"/>
</g>
<g opacity="0.8">
<path opacity="0.8" d="M140.72 85.7041L140.736 91.1777L135.654 94.0969L135.646 88.6233L140.72 85.7041Z" fill="#50C5FF"/>
</g>
<g opacity="0.8">
<path opacity="0.8" d="M140.745 95.4131L140.768 100.887L135.694 103.806L135.671 98.3323L140.745 95.4131Z" fill="#50C5FF"/>
</g>
<g opacity="0.8">
<path opacity="0.8" d="M140.775 105.12L140.79 110.594L135.716 113.513L135.701 108.039L140.775 105.12Z" fill="#50C5FF"/>
</g>
<g opacity="0.8">
<path opacity="0.8" d="M140.806 114.821L140.822 120.295L135.748 123.222L135.732 117.741L140.806 114.821Z" fill="#50C5FF"/>
</g>
<g opacity="0.8">
<path opacity="0.8" d="M140.829 124.529L140.844 130.003L135.77 132.93L135.763 127.449L140.829 124.529Z" fill="#50C5FF"/>
</g>
<g opacity="0.8">
<path opacity="0.8" d="M140.857 134.238L140.872 139.712L135.798 142.631L135.783 137.158L140.857 134.238Z" fill="#50C5FF"/>
</g>
<g opacity="0.8">
<path opacity="0.8" d="M140.89 143.937L140.906 149.41L135.832 152.337L135.816 146.863L140.89 143.937Z" fill="#50C5FF"/>
</g>
<g opacity="0.8">
<path opacity="0.8" d="M140.919 153.646L140.927 159.127L135.853 162.046L135.838 156.572L140.919 153.646Z" fill="#50C5FF"/>
</g>
<g opacity="0.8">
<path opacity="0.8" d="M140.943 163.354L140.958 168.827L135.877 171.746L135.869 166.273L140.943 163.354Z" fill="#50C5FF"/>
</g>
<g opacity="0.8">
<path opacity="0.8" d="M149.247 129.401L149.262 134.875L144.188 137.794L144.173 132.321L149.247 129.401Z" fill="#1CF2EC"/>
</g>
<g opacity="0.8">
<path opacity="0.8" d="M149.277 139.109L149.292 144.583L144.211 147.502L144.195 142.029L149.277 139.109Z" fill="#50C5FF"/>
</g>
<g opacity="0.8">
<path opacity="0.8" d="M149.307 148.81L149.315 154.291L144.241 157.21L144.226 151.736L149.307 148.81Z" fill="#50C5FF"/>
</g>
<g opacity="0.8">
<path opacity="0.8" d="M149.33 158.52L149.337 164.001L144.271 166.92L144.256 161.439L149.33 158.52Z" fill="#50C5FF"/>
</g>
<g opacity="0.8">
<path opacity="0.8" d="M157.687 143.983L157.702 149.457L152.628 152.384L152.613 146.903L157.687 143.983Z" fill="#50C5FF"/>
</g>
<g opacity="0.8">
<path opacity="0.8" d="M157.717 153.691L157.725 159.165L152.659 162.084L152.644 156.611L157.717 153.691Z" fill="#50C5FF"/>
</g>
<g opacity="0.8">
<path opacity="0.8" d="M166.014 119.74L166.037 125.214L160.963 128.133L160.948 122.659L166.014 119.74Z" fill="#50C5FF"/>
</g>
<g opacity="0.8">
<path opacity="0.8" d="M166.046 129.441L166.061 134.923L160.987 137.842L160.972 132.368L166.046 129.441Z" fill="#50C5FF"/>
</g>
<g opacity="0.8">
<path opacity="0.8" d="M166.077 139.147L166.092 144.621L161.018 147.548L161.003 142.074L166.077 139.147Z" fill="#50C5FF"/>
</g>
<g opacity="0.8">
<path opacity="0.8" d="M166.098 148.856L166.121 154.33L161.047 157.257L161.024 151.776L166.098 148.856Z" fill="#50C5FF"/>
</g>
<g opacity="0.8">
<path opacity="0.8" d="M174.328 85.7891L174.343 91.2626L169.269 94.1895L169.254 88.7159L174.328 85.7891Z" fill="#50C5FF"/>
</g>
<g opacity="0.8">
<path opacity="0.8" d="M174.357 95.4961L174.365 100.97L169.298 103.889L169.283 98.4153L174.357 95.4961Z" fill="#50C5FF"/>
</g>
<g opacity="0.8">
<path opacity="0.8" d="M174.38 105.197L174.395 110.671L169.321 113.598L169.306 108.124L174.38 105.197Z" fill="#50C5FF"/>
</g>
<g opacity="0.8">
<path opacity="0.8" d="M174.411 114.905L174.426 120.379L169.352 123.306L169.337 117.832L174.411 114.905Z" fill="#50C5FF"/>
</g>
<g opacity="0.8">
<path opacity="0.8" d="M174.441 124.611L174.449 130.085L169.382 133.004L169.367 127.531L174.441 124.611Z" fill="#50C5FF"/>
</g>
<g opacity="0.8">
<path opacity="0.8" d="M174.465 134.321L174.48 139.795L169.406 142.714L169.391 137.241L174.465 134.321Z" fill="#50C5FF"/>
</g>
<g opacity="0.8">
<path opacity="0.8" d="M174.487 144.021L174.502 149.503L169.436 152.422L169.413 146.948L174.487 144.021Z" fill="#50C5FF"/>
</g>
<g opacity="0.8">
<path opacity="0.8" d="M182.6 42.1289L182.623 47.6101L177.542 50.5294L177.526 45.0558L182.6 42.1289Z" fill="#50C5FF"/>
</g>
<g opacity="0.8">
<path opacity="0.8" d="M182.63 51.8369L182.645 57.3105L177.571 60.2297L177.556 54.7562L182.63 51.8369Z" fill="#50C5FF"/>
</g>
<g opacity="0.8">
<path opacity="0.8" d="M182.652 61.5449L182.675 67.0185L177.601 69.9377L177.586 64.4641L182.652 61.5449Z" fill="#50C5FF"/>
</g>
<g opacity="0.8">
<path opacity="0.8" d="M182.684 71.2539L182.7 76.7275L177.626 79.6467L177.61 74.1731L182.684 71.2539Z" fill="#50C5FF"/>
</g>
<g opacity="0.8">
<path opacity="0.8" d="M182.715 80.9531L182.73 86.4267L177.656 89.3535L177.641 83.88L182.715 80.9531Z" fill="#50C5FF"/>
</g>
<g opacity="0.8">
<path opacity="0.8" d="M182.737 90.6602L182.76 96.1337L177.678 99.0606L177.663 93.5794L182.737 90.6602Z" fill="#50C5FF"/>
</g>
<g opacity="0.8">
<path opacity="0.8" d="M182.766 100.37L182.782 105.844L177.708 108.763L177.692 103.289L182.766 100.37Z" fill="#50C5FF"/>
</g>
<g opacity="0.8">
<path opacity="0.8" d="M182.799 110.07L182.814 115.544L177.74 118.471L177.725 112.997L182.799 110.07Z" fill="#50C5FF"/>
</g>
<g opacity="0.8">
<path opacity="0.8" d="M182.821 119.778L182.844 125.252L177.762 128.179L177.747 122.705L182.821 119.778Z" fill="#50C5FF"/>
</g>
<g opacity="0.8">
<path opacity="0.8" d="M182.852 129.484L182.867 134.958L177.794 137.877L177.778 132.404L182.852 129.484Z" fill="#50C5FF"/>
</g>
<g opacity="0.8">
<path opacity="0.8" d="M182.883 139.195L182.89 144.669L177.824 147.588L177.809 142.115L182.883 139.195Z" fill="#50C5FF"/>
</g>
<g opacity="0.8">
<path opacity="0.8" d="M81.9762 109.826L81.9915 115.3L76.9176 118.219L76.9023 112.745L81.9762 109.826Z" fill="#EE4BF7"/>
</g>
<g opacity="0.8">
<path opacity="0.8" d="M90.3092 85.584L90.3245 91.0575L85.2506 93.9844L85.2354 88.5032L90.3092 85.584Z" fill="#EE4BF7"/>
</g>
<g opacity="0.8">
<path opacity="0.8" d="M98.8347 129.28L98.8499 134.754L93.7759 137.673L93.7607 132.199L98.8347 129.28Z" fill="#EE4BF7"/>
</g>
<g opacity="0.8">
<path opacity="0.8" d="M107.33 163.27L107.353 168.743L102.279 171.662L102.256 166.189L107.33 163.27Z" fill="#EE4BF7"/>
</g>
<g opacity="0.8">
<path opacity="0.8" d="M124.023 124.483L124.046 129.965L118.972 132.884L118.949 127.41L124.023 124.483Z" fill="#EE4BF7"/>
</g>
<g opacity="0.8">
<path opacity="0.8" d="M132.334 90.541L132.341 96.007L127.275 98.9338L127.26 93.4602L132.334 90.541Z" fill="#EE4BF7"/>
</g>
<g opacity="0.8">
<path opacity="0.8" d="M140.668 66.2959L140.684 71.7695L135.61 74.6887L135.587 69.2151L140.668 66.2959Z" fill="#EE4BF7"/>
</g>
<g opacity="0.8">
<path opacity="0.8" d="M149.215 119.694L149.238 125.175L144.157 128.095L144.142 122.621L149.215 119.694Z" fill="#EE4BF7"/>
</g>
<g opacity="0.8">
<path opacity="0.8" d="M166 110.031L166.007 115.505L160.933 118.424L160.918 112.95L166 110.031Z" fill="#EE4BF7"/>
</g>
<g opacity="0.8">
<path opacity="0.8" d="M174.298 76.0801L174.32 81.5537L169.239 84.4729L169.224 79.0069L174.298 76.0801Z" fill="#EE4BF7"/>
</g>
<g opacity="0.8">
<path opacity="0.8" d="M182.577 32.4287L182.592 37.9023L177.518 40.8215L177.503 35.3479L182.577 32.4287Z" fill="#EE4BF7"/>
</g>
<g opacity="0.8">
<path opacity="0.8" d="M191.186 105.234L191.201 110.716L186.128 113.635L186.112 108.161L191.186 105.234Z" fill="#EE4BF7"/>
</g>
<g opacity="0.8">
<path opacity="0.8" d="M191.211 114.942L191.226 120.424L186.16 123.343L186.145 117.869L191.211 114.942Z" fill="#50C5FF"/>
</g>
<g opacity="0.8">
<path opacity="0.8" d="M191.239 124.65L191.254 130.124L186.18 133.051L186.165 127.57L191.239 124.65Z" fill="#50C5FF"/>
</g>
<g opacity="0.8">
<path opacity="0.8" d="M191.269 134.359L191.284 139.833L186.211 142.76L186.195 137.279L191.269 134.359Z" fill="#50C5FF"/>
</g>
</g>
<path d="M500.003 373.592L387.561 438.37C379.585 442.969 366.679 442.969 358.756 438.37L113.143 295.951C109.204 293.67 107.231 290.675 107.224 287.68C107.246 288.516 107.285 289.656 107.635 290.987C108.085 292.705 108.664 293.799 108.968 294.301C109.364 294.963 109.585 295.32 110.202 296.095C110.568 296.551 111.124 297.099 111.543 297.509C111.939 297.889 112.846 298.68 114.461 299.638C179.957 337.618 245.446 375.599 310.942 413.579C327.314 423.074 343.687 432.57 360.059 442.065C361.293 442.726 361.758 442.977 362.466 443.251C363.815 443.775 364.592 444.064 366.298 444.482C367.251 444.71 369.826 445.258 373.14 445.258C376.568 445.258 381.627 444.71 386.243 442.072C393.74 437.754 401.237 433.436 408.733 429.118L419.978 422.641C446.216 407.528 472.447 392.415 498.685 377.294C499.271 376.929 500.048 376.428 500.605 376.017C500.955 375.759 501.397 375.378 501.717 375.074C502.075 374.74 503.157 373.721 504.048 372.239C505.351 370.095 505.983 367.799 505.991 365.207C506.021 368.24 504.018 371.281 500.003 373.592Z" fill="url(#paint6_linear_613_2)"/>
<path d="M506.006 363.916C506.013 366.949 504.01 369.982 499.995 372.301L387.554 437.079C379.577 441.671 366.671 441.671 358.748 437.079L113.135 294.652C109.197 292.371 107.223 289.384 107.216 286.381C107.216 286.814 107.216 287.248 107.223 287.681C107.231 290.676 109.204 293.664 113.143 295.952L358.748 438.371C366.671 442.971 379.577 442.971 387.554 438.371L499.995 373.593C504.01 371.282 506.021 368.241 506.006 365.208C506.013 364.782 506.013 364.349 506.006 363.916Z" fill="url(#paint7_linear_613_2)"/>
<path d="M115.924 274.368C109.448 278.093 109.418 284.159 115.848 287.884C197.716 335.36 279.584 382.836 361.445 430.311C367.875 434.044 378.366 434.044 384.834 430.311C422.309 408.713 459.792 387.123 497.275 365.533C503.758 361.8 503.789 355.741 497.351 352.016C415.483 304.541 333.615 257.065 251.746 209.59C245.316 205.857 234.833 205.857 228.357 209.59C190.882 231.18 153.399 252.778 115.924 274.368Z" fill="url(#paint8_linear_613_2)"/>
<path d="M505.9 362.204C505.793 361.39 505.633 360.744 505.587 360.562C505.13 358.821 504.505 357.688 504.262 357.285C503.843 356.593 503.218 355.559 501.984 354.366C500.727 353.142 499.637 352.48 498.761 351.956C441.447 318.719 384.148 285.49 326.842 252.261L302.28 238.022C285.908 228.527 269.528 219.032 253.156 209.537C252.95 209.423 252.729 209.362 252.493 209.369C252.729 209.362 252.958 209.423 253.164 209.537C251.929 208.875 251.465 208.624 250.756 208.351C249.408 207.826 248.623 207.537 246.924 207.119C245.972 206.891 243.397 206.344 240.083 206.344C236.776 206.344 234.216 206.876 233.264 207.112C232.289 207.347 229.699 207.978 226.979 209.529C200.741 224.642 174.503 239.755 148.272 254.876L137.027 261.353L125.782 267.83C122.407 269.776 117.912 272.361 114.537 274.307C113.958 274.665 113.197 275.151 112.648 275.554C112.206 275.881 111.658 276.375 111.254 276.755C111.056 276.945 110.012 277.956 109.144 279.385C107.247 282.525 107.224 285.429 107.224 286.387C107.231 289.382 109.204 292.37 113.143 294.658L358.741 437.077C366.672 441.669 379.57 441.669 387.546 437.077L499.988 372.299C504.003 369.981 506.006 366.947 505.999 363.914C505.976 362.819 505.976 362.819 505.9 362.204ZM497.283 365.533L384.842 430.312C378.366 434.044 367.883 434.044 361.453 430.312L115.848 287.885C109.418 284.16 109.448 278.093 115.924 274.368L228.365 209.59C234.841 205.857 245.324 205.857 251.754 209.59L497.359 352.017C503.789 355.742 503.759 361.801 497.283 365.533Z" fill="url(#paint9_linear_613_2)"/>
<path d="M123.878 284.486C121.417 285.9 121.402 288.204 123.855 289.618L354.154 423.363C356.6 424.777 360.577 424.777 363.038 423.363L485.741 352.67C488.209 351.249 488.217 348.953 485.779 347.531L255.464 213.794C253.019 212.372 249.042 212.372 246.574 213.794L123.878 284.486Z" fill="url(#paint10_linear_613_2)"/>
<path d="M153.588 201.728V230.7L128.279 216.142V187.17L153.588 201.728Z" fill="#25A9F2"/>
<path d="M153.589 201.728V230.7L178.898 216.142V187.17L153.589 201.728Z" fill="#3BC9F8"/>
<path d="M153.664 172.604L178.881 187.23L153.496 201.857L128.279 187.23L153.664 172.604Z" fill="#1F9FEA"/>
<path d="M399.987 195.107L397.092 203.067L396.978 203.379L399.873 195.419L399.987 195.107Z" fill="#4B4A4A"/>
<path d="M333.729 125.668L333.812 154.639L359.083 140.081L358.999 111.109L333.729 125.668Z" fill="url(#paint11_linear_613_2)"/>
<path d="M387.751 187.983L412.854 202.534L387.583 217.092L362.48 202.534L387.751 187.983Z" fill="url(#paint12_linear_613_2)"/>
<path d="M223.901 188.395L249.011 202.953L223.741 217.511L198.638 202.953L223.901 188.395Z" fill="url(#paint13_linear_613_2)"/>
<path d="M331.619 63.3306V92.3025L306.311 77.752V48.7725L331.619 63.3306Z" fill="#25A9F2"/>
<path d="M331.62 63.3306V92.3025L356.929 77.752V48.7725L331.62 63.3306Z" fill="#3BC9F8"/>
<path d="M331.695 34.2139L356.92 48.8329L331.535 63.4595L306.311 48.8329L331.695 34.2139Z" fill="#1F9FEA"/>
<path d="M250.2 265.845L250.116 294.817L224.846 280.259L224.929 251.287L250.2 265.845Z" fill="#25A9F2"/>
<path d="M250.291 234.752L250.207 263.724L224.937 249.166L225.02 220.194L250.291 234.752Z" fill="#25A9F2"/>
<path d="M277.315 281.467L277.238 310.439L251.968 295.881L252.052 266.909L277.315 281.467Z" fill="#25A9F2"/>
<path d="M304.702 203.813L304.618 232.785L279.348 218.227L279.431 189.255L304.702 203.813Z" fill="#25A9F2"/>
<path d="M304.611 234.905L304.535 263.877L279.257 249.319L279.341 220.347L304.611 234.905Z" fill="#25A9F2"/>
<path d="M304.527 265.998L304.443 294.97L279.173 280.411L279.257 251.439L304.527 265.998Z" fill="#25A9F2"/>
<path d="M304.435 297.09L304.352 326.062L279.081 311.504L279.165 282.532L304.435 297.09Z" fill="#25A9F2"/>
<path d="M223.169 219.13L223.085 248.102L197.822 233.544L197.906 204.572L223.169 219.13Z" fill="#25A9F2"/>
<path d="M277.581 188.19L277.497 217.162L252.234 202.604L252.311 173.632L277.581 188.19Z" fill="#25A9F2"/>
<path d="M277.497 219.282L277.413 248.254L252.143 233.696L252.226 204.724L277.497 219.282Z" fill="#25A9F2"/>
<path d="M387.873 250.222L387.957 279.194L413.22 264.636L413.144 235.664L387.873 250.222Z" fill="#3BC9F8"/>
<path d="M360.492 172.56L360.576 201.54L385.847 186.982L385.763 158.01L360.492 172.56Z" fill="#3BC9F8"/>
<path d="M360.576 203.66L360.66 232.632L385.931 218.066L385.847 189.102L360.576 203.66Z" fill="#3BC9F8"/>
<path d="M306.257 203.813L306.341 232.785L331.604 218.227L331.527 189.255L306.257 203.813Z" fill="#3BC9F8"/>
<path d="M306.341 234.905L306.425 263.877L331.695 249.319L331.611 220.347L306.341 234.905Z" fill="#3BC9F8"/>
<path d="M306.432 265.998L306.515 294.97L331.786 280.411L331.702 251.439L306.432 265.998Z" fill="#3BC9F8"/>
<path d="M333.515 250.208L333.598 279.18L358.869 264.621L358.785 235.649L333.515 250.208Z" fill="#3BC9F8"/>
<path d="M306.522 297.09L306.599 326.062L331.869 311.504L331.793 282.532L306.522 297.09Z" fill="#3BC9F8"/>
<path d="M387.788 219.13L387.864 248.102L413.135 233.544L413.051 204.572L387.788 219.13Z" fill="#3BC9F8"/>
<path d="M333.372 188.19L333.456 217.162L358.726 202.604L358.643 173.632L333.372 188.19Z" fill="#3BC9F8"/>
<path d="M332.418 157.583L357.521 172.141L332.25 186.692L307.147 172.141L332.418 157.583Z" fill="#1F9FEA"/>
<path d="M359.532 141.961L384.635 156.512L359.365 171.07L334.262 156.519L359.532 141.961Z" fill="#1F9FEA"/>
<path d="M386.646 126.338L411.749 140.888L386.486 155.447L361.383 140.888L386.646 126.338Z" fill="#1F9FEA"/>
<path d="M332.769 95.0928L357.872 109.643L332.609 124.201L307.498 109.643L332.769 95.0928Z" fill="#1F9FEA"/>
<path d="M278.708 95.084L303.811 109.642L278.548 124.2L253.438 109.642L278.708 95.084Z" fill="#1F9FEA"/>
<path d="M305.655 110.705L330.758 125.263L305.488 139.821L280.385 125.263L305.655 110.705Z" fill="#1F9FEA"/>
<path d="M332.593 126.331L357.696 140.889L332.425 155.447L307.322 140.889L332.593 126.331Z" fill="#1F9FEA"/>
<path d="M305.472 141.961L330.582 156.519L305.312 171.07L280.201 156.512L305.472 141.961Z" fill="#1F9FEA"/>
<path d="M305.259 142.272L330.37 156.831L305.099 171.389L279.996 156.831L305.259 142.272Z" fill="#1F9FEA"/>
<path d="M250.657 141.351L250.581 170.323L225.311 155.765L225.387 126.793L250.657 141.351Z" fill="url(#paint14_linear_613_2)"/>
<path d="M278.357 157.583L303.46 172.141L278.19 186.699L253.087 172.141L278.357 157.583Z" fill="#1F9FEA"/>
<path d="M305.298 173.205L330.401 187.756L305.13 202.314L280.027 187.763L305.298 173.205Z" fill="#1F9FEA"/>
<path d="M251.594 110.708L276.697 125.266L251.426 139.824L226.323 125.266L251.594 110.708Z" fill="#1F9FEA"/>
<path d="M333.578 219.177L333.662 248.142L358.932 233.583L358.849 204.619L333.578 219.177Z" fill="url(#paint15_linear_613_2)"/>
<path d="M333.578 219.177L333.662 248.141L358.932 233.583V233.56L333.769 219.062L333.578 219.177Z" fill="url(#paint16_linear_613_2)"/>
<path d="M277.39 250.581L277.307 279.545L252.036 264.987L252.12 236.022L277.39 250.581Z" fill="url(#paint17_linear_613_2)"/>
<path d="M277.39 250.58L277.307 279.544L252.036 264.986V264.963L277.2 250.466L277.39 250.58Z" fill="url(#paint18_linear_613_2)"/>
<path d="M278.412 126.2L303.515 140.758L278.245 155.316L253.142 140.758L278.412 126.2Z" fill="url(#paint19_linear_613_2)"/>
<path d="M278.404 155.225L303.515 140.758L278.412 126.2L278.404 126.208V155.225Z" fill="url(#paint20_linear_613_2)"/>
<path d="M360.668 234.752L360.752 263.724L386.022 249.166L385.939 220.194L360.668 234.752Z" fill="#3BC9F8"/>
<path opacity="0.7" d="M454.857 259.126L358.963 204.596L333.631 219.192L333.578 219.161V248.133L429.602 302.626L454.91 288.068V259.096L454.857 259.126Z" fill="url(#paint21_linear_613_2)"/>
<path opacity="0.7" d="M156.133 290.538L252.027 236.008L277.359 250.604L277.412 250.566V279.538L181.389 334.038L156.08 319.48V290.5L156.133 290.538Z" fill="url(#paint22_linear_613_2)"/>
<path opacity="0.7" d="M303.477 46.6675L278.306 32.0713L252.974 46.6599L252.921 46.6295V140.752L278.23 155.31L303.531 140.752V46.6295L303.477 46.6675Z" fill="url(#paint23_linear_613_2)"/>
<path d="M251.418 141.953L276.521 156.511L251.25 171.07L226.147 156.511L251.418 141.953Z" fill="#1F9FEA"/>
<path d="M387.607 156.935L387.691 185.915L412.962 171.357L412.878 142.385L387.607 156.935Z" fill="#3BC9F8"/>
<path opacity="0.4" d="M280.278 435.959L305.449 450.555L330.781 435.959L330.834 435.99V341.875L305.525 327.316L280.217 341.875V435.99L280.278 435.959Z" fill="url(#paint24_linear_613_2)"/>
<path d="M305.525 356.433V385.413L280.217 370.855V341.883L305.525 356.433Z" fill="#25A9F2"/>
<path d="M305.526 356.433V385.413L330.835 370.855V341.883L305.526 356.433Z" fill="#3BC9F8"/>
<path d="M305.609 327.316L330.826 341.943L305.442 356.57L280.217 341.943L305.609 327.316Z" fill="#1F9FEA"/>
<path d="M333.637 281.467L333.721 310.439L358.991 295.881L358.907 266.909L333.637 281.467Z" fill="#3BC9F8"/>
<path d="M250.374 203.66L250.29 232.632L225.027 218.066L225.104 189.102L250.374 203.66Z" fill="#25A9F2"/>
<path d="M250.467 172.56L250.383 201.54L225.112 186.982L225.196 158.01L250.467 172.56Z" fill="#25A9F2"/>
<path d="M193.434 141.497V170.469L168.125 155.918V126.938L193.434 141.497Z" fill="#25A9F2"/>
<path d="M193.435 141.497V170.469L218.743 155.918V126.938L193.435 141.497Z" fill="#3BC9F8"/>
<path d="M193.518 112.38L218.735 126.999L193.35 141.625L168.133 126.999L193.518 112.38Z" fill="#1F9FEA"/>
<path opacity="0.4" d="M473.756 344.65L377.87 290.12L352.539 304.716L352.478 304.686V333.658L448.509 388.15L473.817 373.592V344.62L473.756 344.65Z" fill="url(#paint25_linear_613_2)"/>
<path d="M377.786 319.237V348.217L352.478 333.658V304.687L377.786 319.237Z" fill="#25A9F2"/>
<path d="M377.787 319.237V348.217L403.096 333.658V304.687L377.787 319.237Z" fill="#3BC9F8"/>
<path d="M377.87 290.12L403.087 304.747L377.703 319.373L352.485 304.747L377.87 290.12Z" fill="#1F9FEA"/>
<path opacity="0.4" d="M475.403 263.961L434.545 240.729L423.749 246.947L423.727 246.932V259.278L464.645 282.495L475.426 276.299V263.953L475.403 263.961Z" fill="url(#paint26_linear_613_2)"/>
<path d="M434.507 253.136V265.482L423.727 259.279V246.933L434.507 253.136Z" fill="#25A9F2"/>
<path d="M434.507 253.136V265.482L445.295 259.279V246.933L434.507 253.136Z" fill="#3BC9F8"/>
<path d="M434.545 240.729L445.294 246.955L434.476 253.189L423.727 246.955L434.545 240.729Z" fill="#1F9FEA"/>
<path opacity="0.4" d="M333.18 39.5133L292.322 16.2734L281.527 22.492L281.504 22.4768V34.8228L322.423 58.0474L333.211 51.8441V39.4981L333.18 39.5133Z" fill="url(#paint27_linear_613_2)"/>
<path d="M292.292 28.6799V41.0259L281.504 34.8225V22.4766L292.292 28.6799Z" fill="#25A9F2"/>
<path d="M292.291 28.6799V41.0259L303.071 34.8225V22.4766L292.291 28.6799Z" fill="#3BC9F8"/>
<path d="M292.322 16.2734L303.072 22.5072L292.254 28.7334L281.504 22.5072L292.322 16.2734Z" fill="#1F9FEA"/>
<path opacity="0.4" d="M122.408 69.0103L163.715 45.5195L174.632 51.8065L174.655 51.7913V64.2741L133.287 87.7496L122.385 81.4778V68.9951L122.408 69.0103Z" fill="url(#paint28_linear_613_2)"/>
<path d="M163.752 58.0638V70.5465L174.654 64.2747V51.792L163.752 58.0638Z" fill="#25A9F2"/>
<path d="M163.754 58.0638V70.5465L152.852 64.2747V51.792L163.754 58.0638Z" fill="#3BC9F8"/>
<path d="M163.716 45.5195L152.852 51.8141L163.792 58.1163L174.656 51.8141L163.716 45.5195Z" fill="#1F9FEA"/>
<path d="M524.831 340.431L523.581 339.693L523.84 339.252L525.09 339.997L524.831 340.431ZM522.324 338.956L521.075 338.218L521.334 337.778L522.583 338.515L522.324 338.956ZM519.825 337.473L518.576 336.736L518.835 336.295L520.085 337.032L519.825 337.473ZM517.319 335.999L516.07 335.261L516.329 334.82L517.578 335.558L517.319 335.999ZM514.82 334.516L513.563 333.779L513.83 333.338L515.079 334.075L514.82 334.516ZM512.314 333.034L511.064 332.296L511.323 331.855L512.573 332.593L512.314 333.034ZM509.815 331.559L508.565 330.822L508.824 330.388L510.074 331.126L509.815 331.559ZM507.308 330.077L506.059 329.339L506.318 328.898L507.567 329.643L507.308 330.077ZM504.809 328.602L503.56 327.864L503.819 327.423L505.068 328.161L504.809 328.602ZM502.303 327.119L501.054 326.382L501.313 325.949L502.562 326.686L502.303 327.119ZM499.804 325.644L498.555 324.907L498.814 324.466L500.063 325.203L499.804 325.644ZM497.298 324.162L496.048 323.425L496.307 322.984L497.557 323.721L497.298 324.162ZM494.799 322.687L493.549 321.95L493.808 321.516L495.058 322.254L494.799 322.687ZM492.292 321.205L491.043 320.467L491.302 320.026L492.551 320.764L492.292 321.205ZM489.793 319.73L488.544 318.993L488.803 318.552L490.052 319.289L489.793 319.73ZM487.287 318.248L486.037 317.51L486.296 317.069L487.546 317.807L487.287 318.248ZM484.788 316.773L483.539 316.035L483.798 315.594L485.047 316.332L484.788 316.773ZM482.282 315.29L481.032 314.553L481.291 314.112L482.541 314.849L482.282 315.29ZM479.775 313.815L478.526 313.07L478.785 312.629L480.034 313.367L479.775 313.815ZM477.276 312.333L476.027 311.596L476.286 311.155L477.535 311.892L477.276 312.333ZM474.777 310.858L473.528 310.121L473.787 309.68L475.036 310.417L474.777 310.858ZM472.271 309.376L471.021 308.638L471.28 308.197L472.53 308.935L472.271 309.376ZM469.764 307.901L468.515 307.156L468.774 306.723L470.023 307.46L469.764 307.901ZM467.265 306.418L466.016 305.681L466.283 305.24L467.532 305.978L467.265 306.418ZM464.759 304.936L463.51 304.199L463.769 303.758L465.018 304.495L464.759 304.936ZM462.26 303.461L461.011 302.724L461.27 302.283L462.519 303.02L462.26 303.461ZM459.754 301.979L458.504 301.241L458.763 300.8L460.013 301.545L459.754 301.979ZM457.255 300.504L456.005 299.767L456.264 299.326L457.514 300.063L457.255 300.504ZM454.756 299.022L453.506 298.284L453.765 297.843L455.015 298.581L454.756 299.022ZM452.249 297.547L451 296.802L451.259 296.361L452.508 297.098L452.249 297.547ZM449.743 296.064L448.493 295.327L448.753 294.886L450.002 295.623L449.743 296.064ZM447.244 294.582L445.995 293.844L446.254 293.404L447.503 294.141L447.244 294.582ZM444.738 293.107L443.488 292.37L443.747 291.929L444.997 292.666L444.738 293.107ZM442.239 291.632L440.989 290.887L441.248 290.446L442.498 291.184L442.239 291.632Z" fill="#FF6680"/>
<path d="M439.984 281.757L444.852 284.562L439.984 287.375L435.139 284.562L439.984 281.757Z" fill="#FF76A7"/>
<path d="M444.852 284.562V290.652L439.984 293.457V287.375L444.852 284.562Z" fill="url(#paint29_linear_613_2)"/>
<path d="M439.984 287.375V293.457L435.139 290.652V284.562L439.984 287.375Z" fill="#A943FF"/>
<path d="M467.929 298.192L472.805 300.998L467.929 303.803L463.092 300.998L467.929 298.192Z" fill="#FF76A7"/>
<path d="M472.805 300.998V307.08L467.929 309.885V303.803L472.805 300.998Z" fill="url(#paint30_linear_613_2)"/>
<path d="M467.93 303.803V309.885L463.092 307.08V300.998L467.93 303.803Z" fill="#A943FF"/>
<path d="M495.882 314.62L500.751 317.433L495.882 320.238L491.037 317.433L495.882 314.62Z" fill="#FF76A7"/>
<path d="M500.751 317.433V323.514L495.883 326.32V320.238L500.751 317.433Z" fill="url(#paint31_linear_613_2)"/>
<path d="M495.883 320.238V326.32L491.037 323.514V317.433L495.883 320.238Z" fill="#A943FF"/>
<path d="M523.825 331.056L528.701 333.861L523.825 336.666L518.987 333.861L523.825 331.056Z" fill="#FF76A7"/>
<path d="M528.7 333.861V339.943L523.824 342.748V336.667L528.7 333.861Z" fill="url(#paint32_linear_613_2)"/>
<path d="M523.825 336.667V342.748L518.987 339.943V333.861L523.825 336.667Z" fill="#A943FF"/>
<path d="M4.38867 295.951L5.63809 295.206L5.89712 295.647L4.6477 296.384L4.38867 295.951ZM6.88754 294.468L8.13696 293.731L8.39598 294.172L7.14656 294.909L6.88754 294.468ZM9.39403 292.993L10.6434 292.256L10.9025 292.697L9.65303 293.434L9.39403 292.993ZM11.8929 291.511L13.1423 290.774L13.4013 291.214L12.1519 291.952L11.8929 291.511ZM14.3994 290.036L15.6488 289.299L15.9155 289.74L14.6584 290.477L14.3994 290.036ZM16.8982 288.554L18.1477 287.816L18.4067 288.257L17.1573 288.995L16.8982 288.554ZM19.4047 287.079L20.6541 286.341L20.9132 286.775L19.6637 287.512L19.4047 287.079ZM21.9036 285.596L23.153 284.859L23.412 285.292L22.1626 286.037L21.9036 285.596ZM24.4101 284.122L25.6595 283.384L25.9185 283.825L24.6691 284.563L24.4101 284.122ZM26.9089 282.639L28.1584 281.902L28.4174 282.343L27.1679 283.08L26.9089 282.639ZM29.4154 281.164L30.6649 280.427L30.9239 280.868L29.6745 281.605L29.4154 281.164ZM31.9143 279.682L33.1637 278.945L33.4227 279.385L32.1733 280.123L31.9143 279.682ZM34.4208 278.207L35.6702 277.47L35.9292 277.903L34.6798 278.648L34.4208 278.207ZM36.9197 276.725L38.1691 275.987L38.4281 276.428L37.1787 277.166L36.9197 276.725ZM39.4261 275.242L40.6756 274.505L40.9346 274.946L39.6851 275.683L39.4261 275.242ZM41.925 273.767L43.1744 273.03L43.4335 273.471L42.184 274.208L41.925 273.767ZM44.4315 272.285L45.6809 271.548L45.9399 271.981L44.6905 272.718L44.4315 272.285ZM46.9303 270.81L48.1798 270.073L48.4388 270.514L47.1894 271.251L46.9303 270.81ZM49.4368 269.328L50.6862 268.59L50.9453 269.031L49.6958 269.776L49.4368 269.328ZM51.9433 267.853L53.1928 267.116L53.4518 267.556L52.2024 268.294L51.9433 267.853ZM54.4422 266.371L55.6916 265.633L55.9506 266.074L54.7012 266.811L54.4422 266.371ZM56.941 264.896L58.1905 264.158L58.4495 264.599L57.2001 265.337L56.941 264.896ZM59.4475 263.413L60.697 262.676L60.956 263.117L59.7066 263.862L59.4475 263.413ZM61.9464 261.931L63.1958 261.193L63.4625 261.634L62.213 262.372L61.9464 261.931ZM64.4529 260.456L65.7023 259.719L65.9614 260.16L64.7119 260.897L64.4529 260.456ZM66.9518 258.974L68.2012 258.236L68.4602 258.677L67.2108 259.415L66.9518 258.974ZM69.4582 257.499L70.7077 256.761L70.9667 257.202L69.7173 257.94L69.4582 257.499ZM71.9647 256.016L73.2141 255.279L73.4732 255.72L72.2237 256.457L71.9647 256.016ZM74.4636 254.542L75.713 253.804L75.972 254.245L74.7226 254.982L74.4636 254.542ZM76.97 253.059L78.2195 252.322L78.4785 252.763L77.2291 253.508L76.97 253.059ZM79.4689 251.584L80.7184 250.847L80.9774 251.288L79.728 252.025L79.4689 251.584ZM81.9754 250.102L83.2249 249.364L83.4839 249.805L82.2345 250.543L81.9754 250.102ZM84.4743 248.627L85.7237 247.89L85.9827 248.323L84.7333 249.06L84.4743 248.627ZM86.9808 247.145L88.2302 246.407L88.4893 246.841L87.2398 247.586L86.9808 247.145Z" fill="#FF6680"/>
<path d="M89.4949 237.71L84.6191 240.523L89.4949 243.328L94.3327 240.523L89.4949 237.71Z" fill="#FF76A7"/>
<path d="M84.6191 240.522V246.604L89.495 249.409V243.328L84.6191 240.522Z" fill="url(#paint33_linear_613_2)"/>
<path d="M89.4951 243.328V249.409L94.3329 246.604V240.522L89.4951 243.328Z" fill="#A943FF"/>
<path d="M61.544 254.146L56.6758 256.951L61.544 259.764L66.3894 256.951L61.544 254.146Z" fill="#FF76A7"/>
<path d="M56.6758 256.951V263.033L61.544 265.846V259.764L56.6758 256.951Z" fill="url(#paint34_linear_613_2)"/>
<path d="M61.5439 259.764V265.846L66.3894 263.033V256.951L61.5439 259.764Z" fill="#A943FF"/>
<path d="M33.5975 270.573L28.7217 273.386L33.5975 276.191L38.4353 273.386L33.5975 270.573Z" fill="#FF76A7"/>
<path d="M28.7217 273.386V279.467L33.5975 282.273V276.191L28.7217 273.386Z" fill="url(#paint35_linear_613_2)"/>
<path d="M33.5977 276.191V282.273L38.4354 279.467V273.386L33.5977 276.191Z" fill="#A943FF"/>
<path d="M5.64558 287.01L0.777344 289.815L5.64558 292.628L10.491 289.815L5.64558 287.01Z" fill="#FF76A7"/>
<path d="M0.777344 289.815V295.897L5.64557 298.71V292.628L0.777344 289.815Z" fill="url(#paint36_linear_613_2)"/>
<path d="M5.64551 292.628V298.71L10.4909 295.897V289.815L5.64551 292.628Z" fill="#A943FF"/>
<path d="M311.65 425.012L312.9 424.267L313.159 424.708L311.909 425.446L311.65 425.012ZM314.149 423.537L315.399 422.8L315.658 423.241L314.408 423.978L314.149 423.537ZM316.656 422.055L317.905 421.318L318.164 421.758L316.915 422.496L316.656 422.055ZM319.155 420.573L320.404 419.835L320.663 420.276L319.414 421.013L319.155 420.573ZM321.661 419.098L322.911 418.36L323.177 418.801L321.92 419.539L321.661 419.098ZM324.16 417.623L325.409 416.885L325.668 417.326L324.419 418.064L324.16 417.623ZM326.666 416.14L327.916 415.403L328.175 415.836L326.925 416.574L326.666 416.14ZM329.165 414.658L330.415 413.921L330.674 414.354L329.424 415.099L329.165 414.658ZM331.672 413.183L332.921 412.446L333.18 412.887L331.931 413.624L331.672 413.183ZM334.171 411.701L335.42 410.963L335.679 411.404L334.43 412.142L334.171 411.701ZM336.677 410.226L337.927 409.489L338.186 409.929L336.936 410.667L336.677 410.226ZM339.176 408.744L340.425 408.006L340.684 408.447L339.435 409.184L339.176 408.744ZM341.682 407.269L342.932 406.531L343.191 406.965L341.942 407.71L341.682 407.269ZM344.181 405.786L345.431 405.049L345.69 405.49L344.44 406.227L344.181 405.786ZM346.688 404.311L347.937 403.574L348.196 404.015L346.947 404.752L346.688 404.311ZM349.187 402.829L350.436 402.092L350.695 402.533L349.446 403.27L349.187 402.829ZM351.693 401.354L352.943 400.617L353.202 401.05L351.952 401.788L351.693 401.354ZM354.2 399.872L355.449 399.134L355.708 399.575L354.459 400.313L354.2 399.872ZM356.699 398.389L357.948 397.652L358.207 398.093L356.958 398.838L356.699 398.389ZM359.205 396.915L360.454 396.177L360.713 396.618L359.464 397.355L359.205 396.915ZM361.704 395.44L362.953 394.702L363.212 395.143L361.963 395.881L361.704 395.44ZM364.21 393.957L365.46 393.22L365.719 393.661L364.469 394.398L364.21 393.957ZM366.709 392.475L367.959 391.737L368.218 392.178L366.968 392.923L366.709 392.475ZM369.216 391L370.465 390.263L370.724 390.704L369.475 391.441L369.216 391ZM371.715 389.518L372.964 388.78L373.223 389.221L371.974 389.959L371.715 389.518ZM374.221 388.043L375.471 387.305L375.73 387.746L374.48 388.484L374.221 388.043ZM376.72 386.56L377.969 385.823L378.228 386.264L376.979 387.001L376.72 386.56ZM379.226 385.086L380.476 384.348L380.735 384.789L379.485 385.526L379.226 385.086ZM381.725 383.603L382.975 382.866L383.234 383.307L381.984 384.044L381.725 383.603ZM384.232 382.121L385.481 381.383L385.74 381.824L384.491 382.569L384.232 382.121ZM386.731 380.646L387.98 379.908L388.239 380.349L386.99 381.087L386.731 380.646ZM389.237 379.163L390.487 378.426L390.746 378.867L389.496 379.604L389.237 379.163ZM391.736 377.689L392.985 376.951L393.244 377.385L391.995 378.122L391.736 377.689ZM394.243 376.206L395.492 375.469L395.751 375.902L394.502 376.647L394.243 376.206Z" fill="#FF6680"/>
<path d="M396.756 366.78L391.888 369.585L396.756 372.391L401.601 369.585L396.756 366.78Z" fill="#FF76A7"/>
<path d="M391.888 369.586V375.668L396.756 378.473V372.391L391.888 369.586Z" fill="url(#paint37_linear_613_2)"/>
<path d="M396.756 372.391V378.473L401.601 375.668V369.586L396.756 372.391Z" fill="#A943FF"/>
<path d="M368.806 383.209L363.938 386.014L368.806 388.827L373.651 386.014L368.806 383.209Z" fill="#FF76A7"/>
<path d="M363.938 386.015V392.104L368.806 394.909V388.827L363.938 386.015Z" fill="url(#paint38_linear_613_2)"/>
<path d="M368.806 388.827V394.909L373.651 392.104V386.015L368.806 388.827Z" fill="#A943FF"/>
<path d="M340.859 399.645L335.983 402.45L340.859 405.262L345.697 402.45L340.859 399.645Z" fill="#FF76A7"/>
<path d="M335.983 402.45V408.532L340.859 411.337V405.263L335.983 402.45Z" fill="url(#paint39_linear_613_2)"/>
<path d="M340.859 405.263V411.337L345.697 408.532V402.45L340.859 405.263Z" fill="#A943FF"/>
<path d="M312.907 416.073L308.039 418.886L312.907 421.691L317.753 418.886L312.907 416.073Z" fill="#FF76A7"/>
<path d="M308.039 418.886V424.967L312.907 427.773V421.691L308.039 418.886Z" fill="url(#paint40_linear_613_2)"/>
<path d="M312.907 421.691V427.773L317.753 424.967V418.886L312.907 421.691Z" fill="#A943FF"/>
<path d="M128.509 224.307L127.481 224.071C126.407 225.075 125.294 225.911 124.167 226.557C122.148 227.72 119.969 228.009 117.699 227.409L116.762 227.948C114.499 231.157 112.328 233.376 110.309 234.539C109.181 235.193 108.069 235.642 106.995 235.87L105.974 237.291C105.951 237.93 105.943 238.561 105.943 239.169C105.997 258.304 112.975 259.155 117.127 257.962L117.508 257.741C121.653 254.161 128.601 245.289 128.547 226.154C128.547 225.531 128.54 224.915 128.509 224.307ZM117.318 256.038C111.04 257.703 107.566 251.409 107.528 238.265C107.528 238.052 107.528 237.831 107.528 237.603C108.442 237.314 109.372 236.896 110.316 236.349C112.533 235.072 114.857 232.776 117.234 229.522C119.619 230.031 121.95 229.644 124.167 228.367C125.111 227.827 126.041 227.165 126.955 226.405C126.955 226.618 126.963 226.838 126.963 227.059C127.008 240.203 123.58 250.481 117.318 256.038Z" fill="url(#paint41_linear_613_2)"/>
<path d="M214.399 89.8772C214.407 93.0397 215.375 95.5636 217.279 97.3882C219.679 99.6764 226.246 105.766 226.315 105.827L227.054 106.511L227.793 104.975C227.854 104.838 234.368 91.2152 236.752 86.1749C238.634 82.1762 239.586 78.5424 239.579 75.3799C239.556 67.4204 233.895 64.2046 226.955 68.2034C219.999 72.1945 214.377 81.9177 214.399 89.8772ZM217.34 88.1819C217.325 82.0774 221.629 74.6348 226.955 71.5636C232.28 68.4923 236.615 70.9554 236.63 77.0675C236.645 83.1721 232.341 90.6146 227.016 93.6859C221.69 96.7572 217.355 94.2941 217.34 88.1819Z" fill="url(#paint42_linear_613_2)"/>
<path d="M156.27 296.248C172.749 286.753 206.964 296.317 218.689 295.252L234.36 304.345L268.955 324.407L135.83 401.105L101.242 381.043L90.035 374.543C89.9131 373.958 87.6504 362.828 101.935 354.595C108.083 351.052 117.317 348.156 131.152 347.114C138.801 346.537 143.943 345.183 147.296 343.245C164.125 333.552 136.15 309.392 155.265 296.864C155.592 296.659 155.927 296.446 156.27 296.248Z" fill="url(#paint43_linear_613_2)"/>
<path d="M64.2393 359.823C66.4105 360.348 107.695 370.246 127.838 358.637C148.081 346.755 123.488 330.327 134.741 323.629C138.71 321.341 150.877 321.432 164.262 320.824C177.648 320.216 192.238 318.901 201.022 313.845C209.234 309.117 212.358 301.104 204.648 287.329L229.683 301.849L268.887 324.58L135.739 401.286L96.5341 378.548L64.2393 359.823Z" fill="url(#paint44_linear_613_2)"/>
<path d="M247.319 346.619L249.11 347.653L241.963 351.773L240.181 350.739L247.319 346.619Z" fill="#27FFF9"/>
<path d="M214.08 365.77L215.87 366.803L208.724 370.916L206.941 369.89L214.08 365.77Z" fill="#27FFF9"/>
<path d="M180.841 384.927L182.623 385.961L175.485 390.073L173.702 389.04L180.841 384.927Z" fill="#27FFF9"/>
<path d="M147.6 404.076L149.383 405.11L142.245 409.223L140.462 408.189L147.6 404.076Z" fill="#27FFF9"/>
<path d="M280.566 327.471L282.349 328.505L275.21 332.617L273.42 331.583L280.566 327.471Z" fill="#27FFF9"/>
<path d="M43.5902 347.422L43.0684 348.324L135.765 401.729L136.287 400.828L43.5902 347.422Z" fill="#27FFF9"/>
<path d="M76.848 327.94L76.3262 328.842L169.023 382.247L169.545 381.345L76.848 327.94Z" fill="#27FFF9"/>
<path d="M110.189 308.702L109.667 309.604L202.364 363.009L202.885 362.107L110.189 308.702Z" fill="#27FFF9"/>
<path d="M143.521 289.464L142.999 290.366L235.696 343.771L236.217 342.87L143.521 289.464Z" fill="#27FFF9"/>
<path d="M176.584 270.429L176.066 271.324L268.763 324.73L269.281 323.834L176.584 270.429Z" fill="#27FFF9"/>
<path d="M90.028 375.409C89.6242 375.409 89.2662 375.127 89.1824 374.717C88.9233 373.455 87.072 362.158 101.501 353.849C108.61 349.751 118.567 347.197 131.092 346.254C138.261 345.714 143.418 344.49 146.87 342.499C154.389 338.165 152.294 330.822 149.871 322.323C147.289 313.261 144.356 302.983 154.793 296.148C155.136 295.92 155.486 295.707 155.844 295.502C167.333 288.881 186.615 291.245 202.104 293.145C209.014 293.989 214.979 294.727 218.613 294.4C219.093 294.354 219.512 294.704 219.558 295.183C219.603 295.662 219.253 296.08 218.773 296.125C214.956 296.475 208.899 295.73 201.89 294.871C187.461 293.1 167.699 290.675 156.705 297.007C156.378 297.197 156.05 297.395 155.738 297.6C146.367 303.743 148.988 312.949 151.532 321.859C153.94 330.29 156.423 339.002 147.73 344.004C144.051 346.125 138.649 347.425 131.214 347.987C118.955 348.907 109.249 351.386 102.362 355.354C88.9843 363.063 90.6451 373.242 90.8736 374.375C90.9727 374.846 90.668 375.302 90.1956 375.393C90.1423 375.401 90.0889 375.409 90.028 375.409Z" fill="#39D5FF"/>
<path d="M100.229 364.919C83.3772 364.919 66.8908 361.148 64.1024 360.479C63.6377 360.365 63.3482 359.902 63.4624 359.438C63.5767 358.974 64.0414 358.685 64.5062 358.799C68.9173 359.856 108.183 368.819 127.465 357.712C138.421 351.281 135.617 343.793 132.905 336.555C130.947 331.333 128.928 325.935 134.353 322.704C137.735 320.75 146.047 320.454 156.561 320.081C159.052 319.99 161.642 319.899 164.278 319.777C177.405 319.177 191.994 317.892 200.649 312.912C209.547 307.789 210.629 299.495 203.955 287.567C203.719 287.149 203.871 286.624 204.291 286.388C204.71 286.153 205.235 286.305 205.471 286.723C212.602 299.472 211.277 308.792 201.517 314.41C192.55 319.58 177.702 320.895 164.362 321.503C161.718 321.625 159.12 321.716 156.629 321.807C146.756 322.157 138.23 322.468 135.236 324.194C131.267 326.558 132.379 330.2 134.535 335.947C137.217 343.116 140.562 352.033 128.342 359.202C120.837 363.528 110.469 364.919 100.229 364.919Z" fill="#FF398A"/>
<path d="M160.391 297.122C160.391 298.627 158.251 299.851 155.615 299.851C152.971 299.851 150.838 298.627 150.838 297.122C150.838 295.617 152.979 294.393 155.615 294.393C158.251 294.393 160.391 295.617 160.391 297.122Z" fill="#FF57B3"/>
<path d="M221.608 294.956C221.608 295.822 220.381 296.522 218.865 296.522C217.349 296.522 216.13 295.822 216.13 294.956C216.13 294.089 217.356 293.39 218.865 293.39C220.373 293.39 221.608 294.097 221.608 294.956Z" fill="#39D5FF"/>
<path d="M155.676 333.962C155.676 334.828 154.449 335.528 152.933 335.528C151.417 335.528 150.19 334.828 150.19 333.962C150.19 333.095 151.417 332.396 152.933 332.396C154.449 332.396 155.676 333.095 155.676 333.962Z" fill="#39D5FF"/>
<path d="M116.768 349.904C116.768 350.771 115.542 351.47 114.026 351.47C112.51 351.47 111.283 350.771 111.283 349.904C111.283 349.037 112.51 348.338 114.026 348.338C115.542 348.338 116.768 349.045 116.768 349.904Z" fill="#39D5FF"/>
<path d="M92.7012 374.609C92.7012 375.476 91.4746 376.175 89.9585 376.175C88.4424 376.175 87.2158 375.476 87.2158 374.609C87.2158 373.742 88.4424 373.043 89.9585 373.043C91.4822 373.043 92.7012 373.742 92.7012 374.609Z" fill="#39D5FF"/>
<path d="M66.9971 359.696C66.9971 360.563 65.7705 361.262 64.2544 361.262C62.7383 361.262 61.5117 360.563 61.5117 359.696C61.5117 358.829 62.7383 358.13 64.2544 358.13C65.7705 358.137 66.9971 358.837 66.9971 359.696Z" fill="#FF398A"/>
<path d="M131.008 358.228C131.008 359.087 129.781 359.794 128.265 359.794C126.749 359.794 125.522 359.095 125.522 358.228C125.522 357.361 126.749 356.662 128.265 356.662C129.781 356.662 131.008 357.361 131.008 358.228Z" fill="#FF398A"/>
<path d="M137.613 323.471C137.613 324.338 136.387 325.037 134.878 325.037C133.362 325.037 132.136 324.338 132.136 323.471C132.136 322.605 133.362 321.905 134.878 321.905C136.387 321.905 137.613 322.605 137.613 323.471Z" fill="#FF398A"/>
<path d="M193.983 317.322C193.983 318.189 192.757 318.888 191.241 318.888C189.725 318.888 188.498 318.189 188.498 317.322C188.498 316.455 189.725 315.756 191.241 315.756C192.757 315.756 193.983 316.455 193.983 317.322Z" fill="#FF398A"/>
<path d="M207.62 287.505C207.62 288.372 206.393 289.072 204.877 289.072C203.361 289.072 202.135 288.372 202.135 287.505C202.135 286.639 203.361 285.939 204.877 285.939C206.393 285.939 207.62 286.639 207.62 287.505Z" fill="#FF398A"/>
<g opacity="0.4">
<g opacity="0.4">
<g opacity="0.4">
<path opacity="0.4" d="M404.573 82.0098C404.642 82.0402 404.71 82.0706 404.778 82.101C404.71 82.0706 404.642 82.0402 404.573 82.0098Z" fill="url(#paint45_linear_613_2)"/>
</g>
<g opacity="0.4">
<path opacity="0.4" d="M404.346 81.9111C404.414 81.9415 404.475 81.972 404.543 82.0024C404.475 81.9644 404.414 81.9415 404.346 81.9111Z" fill="url(#paint46_linear_613_2)"/>
</g>
<g opacity="0.4">
<path opacity="0.4" d="M403.85 81.6757C403.804 81.6526 403.75 81.6295 403.696 81.6064C403.75 81.6295 403.796 81.6526 403.85 81.6757Z" fill="url(#paint47_linear_613_2)"/>
</g>
<g opacity="0.4">
<path opacity="0.4" d="M403.142 81.3195C403.118 81.3116 403.103 81.2959 403.079 81.2881C403.103 81.2959 403.118 81.3116 403.142 81.3195Z" fill="url(#paint48_linear_613_2)"/>
</g>
<g opacity="0.4">
<path opacity="0.4" d="M402.701 81.0767C402.685 81.0687 402.669 81.0608 402.646 81.0449C402.661 81.0608 402.685 81.0687 402.701 81.0767Z" fill="url(#paint49_linear_613_2)"/>
</g>
<g opacity="0.4">
<path opacity="0.4" d="M419.626 71.1702C419.596 81.0834 413.128 85.5915 404.785 82.1021C407.041 83.0448 409.159 83.4021 411.048 83.2272L407.841 74.9713C411.01 74.6672 413.158 71.9532 413.166 67.4527C413.189 60.7248 408.442 52.4992 402.576 49.0934L402.599 41.7041C412.031 47.1625 419.665 60.3675 419.626 71.1702Z" fill="#848484"/>
</g>
<g opacity="0.4">
<path opacity="0.4" d="M404.304 81.8955C404.228 81.8575 404.152 81.8271 404.076 81.7891C404.152 81.8195 404.228 81.8575 404.304 81.8955Z" fill="url(#paint50_linear_613_2)"/>
</g>
<g opacity="0.4">
<path opacity="0.4" d="M403.589 81.5536C403.558 81.5384 403.535 81.5231 403.505 81.5078C403.535 81.5231 403.566 81.5384 403.589 81.5536Z" fill="url(#paint51_linear_613_2)"/>
</g>
<g opacity="0.4">
<path opacity="0.4" d="M402.867 73.7627C402.829 73.7396 402.79 73.7243 402.752 73.7012C402.79 73.7243 402.829 73.7396 402.867 73.7627Z" fill="url(#paint52_linear_613_2)"/>
</g>
<g opacity="0.4">
<path opacity="0.4" d="M402.561 41.6803L402.584 49.1C396.657 45.6866 391.85 48.4158 391.835 55.1666C391.812 61.9097 396.589 70.158 402.47 73.5486C402.508 73.5714 402.554 73.5942 402.592 73.6171C402.66 73.6551 402.699 73.6779 402.744 73.7007C402.79 73.7235 402.828 73.7463 402.866 73.7615C402.942 73.7995 402.973 73.8147 403.003 73.8375C403.544 74.1036 403.598 74.1264 403.643 74.1492C405.175 74.8334 406.592 75.0919 407.849 74.9702L411.056 83.2262C408.961 83.4163 406.599 82.9677 404.078 81.7894C404.001 81.7514 403.963 81.7362 403.925 81.7134C403.796 81.6525 403.75 81.6297 403.697 81.6069C403.659 81.5917 403.628 81.5689 403.59 81.5537C403.46 81.4853 403.415 81.4625 403.361 81.4397C403.247 81.3789 403.194 81.3485 403.133 81.3181C403.011 81.2572 402.95 81.2192 402.889 81.1888C402.82 81.1508 402.752 81.1128 402.683 81.0748C402.569 81.0064 402.501 80.976 402.44 80.9379C393 75.4948 385.344 62.267 385.374 51.4415C385.42 40.6236 393.122 36.2371 402.561 41.6803Z" fill="url(#paint53_linear_613_2)"/>
</g>
</g>
<path opacity="0.4" d="M423.063 96.3847C422.256 96.3847 421.395 96.1414 420.503 95.6548L384.232 76.0336C381.207 74.3991 378.754 70.408 378.762 67.1467L378.876 28.0943C378.884 25.73 380.186 24.1943 382.198 24.1943C383.005 24.1943 383.866 24.4376 384.757 24.9242L421.029 44.5454C424.054 46.1875 426.514 50.171 426.499 53.4399L426.377 92.4923C426.377 94.849 425.075 96.3847 423.063 96.3847ZM382.205 24.9774C380.644 24.9774 379.668 26.1709 379.668 28.1019L379.554 67.1543C379.546 70.1647 381.817 73.8442 384.613 75.357L420.884 94.9783C421.646 95.3888 422.408 95.6092 423.071 95.6092C424.633 95.6092 425.608 94.4157 425.608 92.4847L425.73 53.4323C425.737 50.4219 423.467 46.7424 420.664 45.2296L384.392 25.6083C383.622 25.1902 382.868 24.9774 382.205 24.9774Z" fill="#27FFF9"/>
</g>
<path d="M393.113 89.3232C393.182 89.3536 393.25 89.384 393.318 89.4144C393.25 89.384 393.182 89.3536 393.113 89.3232Z" fill="url(#paint54_linear_613_2)"/>
<path d="M392.887 89.2246C392.955 89.255 393.016 89.2854 393.084 89.3082C393.016 89.2854 392.955 89.255 392.887 89.2246Z" fill="url(#paint55_linear_613_2)"/>
<path d="M392.392 88.998C392.346 88.9749 392.292 88.9518 392.246 88.9287C392.292 88.9441 392.346 88.9672 392.392 88.998Z" fill="url(#paint56_linear_613_2)"/>
<path d="M391.684 88.6329C391.66 88.6251 391.645 88.6094 391.621 88.6016C391.645 88.6172 391.668 88.6251 391.684 88.6329Z" fill="url(#paint57_linear_613_2)"/>
<path d="M391.245 88.3972C391.228 88.3892 391.212 88.3732 391.188 88.3652C391.212 88.3732 391.228 88.3812 391.245 88.3972Z" fill="url(#paint58_linear_613_2)"/>
<path d="M408.176 78.4895C408.146 88.4028 401.678 92.9109 393.335 89.4214C395.591 90.3641 397.709 90.7214 399.606 90.5466L396.398 82.2906C399.567 81.9865 401.716 79.2725 401.723 74.772C401.746 68.0441 397 59.8185 391.134 56.4128L391.157 49.0234C400.573 54.4742 408.207 67.6792 408.176 78.4895Z" fill="url(#paint59_linear_613_2)"/>
<path d="M392.855 89.209C392.779 89.1709 392.703 89.1405 392.627 89.1025C392.703 89.1405 392.779 89.1709 392.855 89.209Z" fill="url(#paint60_linear_613_2)"/>
<path d="M392.139 88.8666C392.109 88.8515 392.086 88.8364 392.056 88.8213C392.078 88.8364 392.109 88.8515 392.139 88.8666Z" fill="url(#paint61_linear_613_2)"/>
<path d="M391.41 81.0763C391.372 81.0532 391.333 81.0378 391.295 81.0146C391.333 81.0378 391.372 81.0609 391.41 81.0763Z" fill="url(#paint62_linear_613_2)"/>
<path d="M391.111 48.9938L391.134 56.4135C385.199 53.0001 380.4 55.7293 380.385 62.48C380.369 69.2231 385.139 77.4715 391.02 80.8621C391.058 80.8849 391.104 80.9077 391.142 80.9305C391.21 80.9685 391.249 80.9913 391.287 81.0141C391.332 81.0369 391.37 81.0597 391.409 81.0825C391.485 81.1206 391.515 81.1358 391.546 81.1586C392.087 81.4246 392.14 81.4474 392.186 81.4703C393.709 82.1544 395.134 82.4129 396.391 82.2913L399.598 90.5473C397.503 90.7373 395.142 90.2812 392.62 89.1028C392.544 89.0648 392.506 89.0496 392.468 89.0268C392.338 88.966 392.292 88.9432 392.239 88.9204C392.201 88.9052 392.17 88.8824 392.132 88.8672C392.003 88.7988 391.949 88.7759 391.911 88.7531C391.797 88.6923 391.744 88.6619 391.683 88.6315C391.561 88.5707 391.5 88.5327 391.439 88.5023C391.37 88.4643 391.302 88.4263 391.241 88.3882C391.127 88.3198 391.058 88.2894 390.997 88.2514C381.558 82.8158 373.901 69.5805 373.932 58.7549C373.962 47.937 381.664 43.5506 391.111 48.9938Z" fill="url(#paint63_linear_613_2)"/>
<path d="M411.605 103.698C410.798 103.698 409.937 103.455 409.045 102.968L372.774 83.3471C369.749 81.7126 367.296 77.7215 367.304 74.4601L367.426 35.4077C367.433 33.0434 368.736 31.5078 370.747 31.5078C371.555 31.5078 372.416 31.7511 373.307 32.2376L409.579 51.8588C412.603 53.4933 415.064 57.4845 415.049 60.7458L414.934 99.7982C414.919 102.17 413.616 103.698 411.605 103.698ZM370.747 32.2908C369.186 32.2908 368.21 33.4844 368.21 35.4153L368.096 74.4677C368.088 77.4782 370.359 81.1576 373.162 82.6705L409.426 102.292C410.188 102.702 410.95 102.923 411.613 102.923C413.175 102.923 414.15 101.729 414.15 99.7982L414.272 60.7458C414.279 57.7353 412.009 54.0559 409.205 52.543L372.934 32.9218C372.172 32.5113 371.41 32.2908 370.747 32.2908Z" fill="#27FFF9"/>
<path d="M495.674 117.254L495.667 119.056L489.412 115.452L489.42 113.65L495.674 117.254Z" fill="#27FFF9"/>
<path d="M496.299 110.047C496.337 110.055 496.383 110.062 496.422 110.078C496.383 110.062 496.345 110.055 496.299 110.047Z" fill="#52BDFF"/>
<path d="M496.149 110.01C496.188 110.017 496.226 110.025 496.272 110.041C496.234 110.025 496.196 110.017 496.149 110.01Z" fill="#52BDFF"/>
<path d="M496.127 110.002C496.073 109.987 496.027 109.979 495.98 109.964C496.027 109.979 496.073 109.995 496.127 110.002Z" fill="#52BDFF"/>
<path d="M495.971 109.964C495.872 109.941 495.781 109.91 495.683 109.888C495.774 109.91 495.872 109.941 495.971 109.964Z" fill="#52BDFF"/>
<path d="M495.644 109.872C495.553 109.849 495.469 109.819 495.378 109.788C495.461 109.819 495.553 109.849 495.644 109.872Z" fill="#52BDFF"/>
<path d="M494.992 109.668C494.968 109.66 494.952 109.652 494.929 109.645C494.952 109.652 494.976 109.66 494.992 109.668Z" fill="#52BDFF"/>
<path d="M494.811 109.6C494.795 109.592 494.778 109.592 494.762 109.584C494.778 109.592 494.795 109.592 494.811 109.6Z" fill="#52BDFF"/>
<path d="M494.344 109.418C494.328 109.41 494.305 109.402 494.289 109.395C494.305 109.402 494.328 109.41 494.344 109.418Z" fill="#52BDFF"/>
<path d="M493.498 109.035C493.49 109.035 493.482 109.027 493.482 109.027C493.49 109.035 493.498 109.035 493.498 109.035Z" fill="#52BDFF"/>
<path d="M492.583 78.7418L492.605 84.3674C488.11 81.7751 484.469 83.8504 484.454 88.9667C484.438 94.083 488.057 100.332 492.514 102.902C492.544 102.917 492.575 102.94 492.605 102.955C492.659 102.985 492.689 103 492.72 103.016C492.75 103.031 492.781 103.046 492.811 103.069C492.963 103.145 492.986 103.16 493.017 103.175C493.337 103.327 493.367 103.342 493.39 103.358C496.079 104.528 498.296 104.042 499.546 102.278L503.766 107.516C502.075 109.896 499.287 110.823 495.973 109.972C495.866 109.949 495.775 109.918 495.676 109.888C495.546 109.85 495.462 109.827 495.371 109.797C495.203 109.743 495.165 109.728 495.127 109.721C494.883 109.637 494.845 109.622 494.8 109.607C494.723 109.576 494.693 109.569 494.662 109.553C494.563 109.515 494.525 109.5 494.48 109.485C494.403 109.455 494.373 109.439 494.335 109.424C494.236 109.386 494.198 109.363 494.152 109.348C494.083 109.318 494.045 109.303 494.007 109.287C493.916 109.249 493.87 109.227 493.824 109.204C493.756 109.173 493.718 109.158 493.68 109.135C493.596 109.097 493.542 109.075 493.497 109.052C493.436 109.021 493.39 108.998 493.352 108.976C493.261 108.93 493.215 108.907 493.169 108.884C493.116 108.854 493.07 108.831 493.024 108.808C492.887 108.732 492.788 108.679 492.689 108.626C492.598 108.58 492.552 108.55 492.499 108.52C485.345 104.399 479.54 94.3643 479.563 86.1615C479.585 77.9436 485.429 74.6214 492.583 78.7418Z" fill="#AF64FF"/>
<path d="M505.519 101.099C505.504 107.728 501.679 111.172 496.445 110.069C499.554 110.723 502.159 109.773 503.774 107.5L499.554 102.262C500.239 101.296 500.628 99.9508 500.635 98.2783C500.651 93.1772 497.055 86.9434 492.605 84.3587L492.621 78.7559C499.759 82.8991 505.549 92.9111 505.519 101.099Z" fill="#52BDFF"/>
<path d="M456.965 94.9558L456.957 96.7575L450.702 93.1541L450.71 91.3447L456.965 94.9558Z" fill="#27FFF9"/>
<path d="M466.8 78.0885C466.8 78.0423 466.792 77.9885 466.792 77.9424C466.8 77.9885 466.8 78.0423 466.8 78.0885Z" fill="#52BDFF"/>
<path d="M453.873 56.4432L453.895 62.0688C449.401 59.4764 445.759 61.5518 445.744 66.6681C445.728 71.7844 449.347 78.0333 453.804 80.6029C458.268 83.1724 461.91 81.1046 461.918 75.9884C461.918 75.9504 461.918 75.9199 461.918 75.8819C461.918 75.8211 461.918 75.7907 461.918 75.7527C461.918 75.7071 461.918 75.6767 461.918 75.6463C461.902 75.2738 461.895 75.2357 461.895 75.1901C461.796 73.7153 461.415 72.1797 460.828 70.682L465.072 70.3171C466.047 72.803 466.656 75.3498 466.786 77.7673C466.786 77.8205 466.793 77.8509 466.793 77.8889C466.801 77.9877 466.801 78.0409 466.801 78.0866C466.801 78.117 466.801 78.155 466.801 78.1854C466.801 78.2994 466.809 78.345 466.809 78.3907C466.809 78.4819 466.809 78.5351 466.809 78.5883C466.809 78.6871 466.809 78.748 466.809 78.8012C466.786 87.0115 460.943 90.3261 453.789 86.2057C446.635 82.0853 440.83 72.0504 440.853 63.8477C440.875 55.6373 446.719 52.3152 453.873 56.4432Z" fill="#AF64FF"/>
<path d="M453.911 56.4668C460.623 60.3515 466.131 69.4285 466.755 77.3043C466.573 75.0237 465.978 72.6442 465.072 70.3179L460.836 70.6829C459.442 67.1326 456.859 63.7953 453.896 62.0696L453.911 56.4668Z" fill="#52BDFF"/>
<path d="M531.688 130.967C531.742 130.99 531.796 131.013 531.85 131.036C531.796 131.013 531.742 130.99 531.688 130.967Z" fill="#52BDFF"/>
<path d="M531.52 130.891C531.566 130.914 531.62 130.937 531.673 130.96C531.62 130.937 531.566 130.914 531.52 130.891Z" fill="#52BDFF"/>
<path d="M531.141 130.718C531.102 130.703 531.064 130.679 531.025 130.664C531.072 130.679 531.102 130.703 531.141 130.718Z" fill="#52BDFF"/>
<path d="M530.611 130.445C530.595 130.436 530.578 130.428 530.562 130.42C530.578 130.428 530.595 130.436 530.611 130.445Z" fill="#52BDFF"/>
<path d="M530.272 130.261C530.256 130.253 530.248 130.245 530.232 130.237C530.248 130.253 530.256 130.253 530.272 130.261Z" fill="#52BDFF"/>
<path d="M543.108 122.757C543.085 130.275 538.178 133.689 531.855 131.043C533.569 131.758 535.169 132.024 536.609 131.895L534.179 125.638C536.586 125.41 538.209 123.35 538.216 119.936C538.232 114.835 534.636 108.602 530.187 106.017L530.202 100.414C537.348 104.55 543.13 114.562 543.108 122.757Z" fill="#52BDFF"/>
<path d="M533.259 138.903V140.713L526.996 137.109L527.004 135.3L533.259 138.903Z" fill="#27FFF9"/>
<path d="M531.49 130.883C531.429 130.86 531.376 130.829 531.315 130.807C531.376 130.829 531.437 130.852 531.49 130.883Z" fill="#52BDFF"/>
<path d="M530.951 130.626C530.927 130.618 530.903 130.603 530.888 130.595C530.903 130.603 530.927 130.61 530.951 130.626Z" fill="#52BDFF"/>
<path d="M530.4 124.718C530.369 124.703 530.339 124.688 530.316 124.673C530.339 124.688 530.369 124.703 530.4 124.718Z" fill="#52BDFF"/>
<path d="M530.172 100.399L530.195 106.024C525.7 103.432 522.058 105.507 522.043 110.616C522.028 115.732 525.646 121.981 530.103 124.551C530.134 124.566 530.164 124.589 530.195 124.604C530.248 124.634 530.279 124.65 530.309 124.665C530.347 124.68 530.37 124.695 530.4 124.71C530.454 124.741 530.477 124.756 530.507 124.764C530.919 124.969 530.957 124.984 530.995 124.999C532.153 125.516 533.227 125.714 534.187 125.623L536.617 131.879C535.033 132.024 533.242 131.682 531.33 130.785C531.269 130.754 531.239 130.747 531.216 130.731C531.117 130.686 531.079 130.663 531.04 130.648C531.01 130.633 530.987 130.625 530.957 130.61C530.858 130.557 530.819 130.541 530.789 130.526C530.705 130.48 530.66 130.458 530.621 130.435C530.53 130.389 530.484 130.359 530.439 130.336C530.385 130.306 530.34 130.275 530.286 130.252C530.195 130.199 530.149 130.176 530.103 130.146C522.95 126.026 517.144 115.991 517.167 107.788C517.167 99.5928 523.011 96.2706 530.172 100.399Z" fill="#AF64FF"/>
<defs>
<linearGradient id="paint0_linear_613_2" x1="430.109" y1="168.193" x2="513.069" y2="215.802" gradientUnits="userSpaceOnUse">
<stop stop-color="white"/>
<stop offset="0.3709" stop-color="#27FFF9"/>
<stop offset="1"/>
</linearGradient>
<linearGradient id="paint1_linear_613_2" x1="425.586" y1="167.065" x2="508.547" y2="214.674" gradientUnits="userSpaceOnUse">
<stop stop-color="white"/>
<stop offset="0.3709" stop-color="#27FFF9"/>
<stop offset="1"/>
</linearGradient>
<linearGradient id="paint2_linear_613_2" x1="485.458" y1="120.493" x2="440.833" y2="274.467" gradientUnits="userSpaceOnUse">
<stop offset="0.2914" stop-color="#030F42"/>
<stop offset="1" stop-color="#50C5FF"/>
</linearGradient>
<linearGradient id="paint3_linear_613_2" x1="578.348" y1="103.131" x2="360.696" y2="103.131" gradientUnits="userSpaceOnUse">
<stop stop-color="#35E4FC"/>
<stop offset="0.5851" stop-color="#1B1464"/>
<stop offset="0.9998"/>
</linearGradient>
<linearGradient id="paint4_linear_613_2" x1="96.3484" y1="78.0642" x2="139.277" y2="226.186" gradientUnits="userSpaceOnUse">
<stop offset="0.2914" stop-color="#030F42"/>
<stop offset="1" stop-color="#50C5FF"/>
</linearGradient>
<linearGradient id="paint5_linear_613_2" x1="22.5773" y1="56.4707" x2="200.751" y2="56.4707" gradientUnits="userSpaceOnUse">
<stop stop-color="#35E4FC"/>
<stop offset="0.5851" stop-color="#1B1464"/>
<stop offset="0.9998"/>
</linearGradient>
<linearGradient id="paint6_linear_613_2" x1="23.9211" y1="366.47" x2="506.702" y2="366.47" gradientUnits="userSpaceOnUse">
<stop offset="0.1192" stop-color="#50C5FF"/>
<stop offset="0.2577" stop-color="#1251B0"/>
<stop offset="0.4391" stop-color="#030F42"/>
<stop offset="0.8419" stop-color="#030F42"/>
<stop offset="0.9147" stop-color="#1355B7"/>
<stop offset="0.962" stop-color="#50C5FF"/>
</linearGradient>
<linearGradient id="paint7_linear_613_2" x1="24.3557" y1="364.104" x2="490.05" y2="364.104" gradientUnits="userSpaceOnUse">
<stop stop-color="#50C5FF"/>
<stop offset="0.2745" stop-color="#1251B0"/>
<stop offset="0.4391" stop-color="#030F42"/>
<stop offset="0.5723" stop-color="#030F42"/>
<stop offset="1" stop-color="#2473C7"/>
</linearGradient>
<linearGradient id="paint8_linear_613_2" x1="343.568" y1="323.726" x2="572.719" y2="347.233" gradientUnits="userSpaceOnUse">
<stop stop-color="#1355B7"/>
<stop offset="0.4733" stop-color="#030F42"/>
<stop offset="0.5604" stop-color="#2C4EDD"/>
<stop offset="0.651" stop-color="#50C5FF"/>
</linearGradient>
<linearGradient id="paint9_linear_613_2" x1="51.2885" y1="247.891" x2="526.242" y2="389.169" gradientUnits="userSpaceOnUse">
<stop offset="0.1192" stop-color="#50C5FF"/>
<stop offset="0.2577" stop-color="#1251B0"/>
<stop offset="0.4391" stop-color="#030F42"/>
<stop offset="0.8419" stop-color="#030F42"/>
<stop offset="0.9147" stop-color="#1355B7"/>
<stop offset="0.962" stop-color="#50C5FF"/>
</linearGradient>
<linearGradient id="paint10_linear_613_2" x1="474.713" y1="350.508" x2="128.988" y2="285.264" gradientUnits="userSpaceOnUse">
<stop stop-color="#50C5FF"/>
<stop offset="0.2745" stop-color="#1251B0"/>
<stop offset="0.4391" stop-color="#030F42"/>
<stop offset="1" stop-color="#030F42"/>
</linearGradient>
<linearGradient id="paint11_linear_613_2" x1="341.139" y1="144.14" x2="353.697" y2="117.173" gradientUnits="userSpaceOnUse">
<stop stop-color="#010457"/>
<stop offset="0.9762" stop-color="#1F9FEA"/>
</linearGradient>
<linearGradient id="paint12_linear_613_2" x1="362.477" y1="202.538" x2="412.852" y2="202.538" gradientUnits="userSpaceOnUse">
<stop stop-color="#010457"/>
<stop offset="0.9762" stop-color="#1F9FEA"/>
</linearGradient>
<linearGradient id="paint13_linear_613_2" x1="198.635" y1="202.953" x2="249.008" y2="202.953" gradientUnits="userSpaceOnUse">
<stop offset="0.0238" stop-color="#1F9FEA"/>
<stop offset="1" stop-color="#010457"/>
</linearGradient>
<linearGradient id="paint14_linear_613_2" x1="225.308" y1="148.556" x2="250.66" y2="148.556" gradientUnits="userSpaceOnUse">
<stop offset="0.0238" stop-color="#1F9FEA"/>
<stop offset="1" stop-color="#010457"/>
</linearGradient>
<linearGradient id="paint15_linear_613_2" x1="345.917" y1="226.553" x2="359.575" y2="219.491" gradientUnits="userSpaceOnUse">
<stop offset="0.0248" stop-color="white"/>
<stop offset="1" stop-color="#27FFF9"/>
</linearGradient>
<linearGradient id="paint16_linear_613_2" x1="340.689" y1="225.731" x2="348.729" y2="247.509" gradientUnits="userSpaceOnUse">
<stop offset="0.0238" stop-color="white"/>
<stop offset="1" stop-color="#27FFF9"/>
</linearGradient>
<linearGradient id="paint17_linear_613_2" x1="265.053" y1="257.958" x2="251.396" y2="250.896" gradientUnits="userSpaceOnUse">
<stop offset="0.0248" stop-color="white"/>
<stop offset="1" stop-color="#27FFF9"/>
</linearGradient>
<linearGradient id="paint18_linear_613_2" x1="270.279" y1="257.136" x2="262.239" y2="278.914" gradientUnits="userSpaceOnUse">
<stop offset="0.0238" stop-color="white"/>
<stop offset="1" stop-color="#27FFF9"/>
</linearGradient>
<linearGradient id="paint19_linear_613_2" x1="278.769" y1="141.906" x2="272.378" y2="125.192" gradientUnits="userSpaceOnUse">
<stop offset="0.0248" stop-color="white"/>
<stop offset="1" stop-color="#27FFF9"/>
</linearGradient>
<linearGradient id="paint20_linear_613_2" x1="285.373" y1="149.092" x2="291.864" y2="130.877" gradientUnits="userSpaceOnUse">
<stop offset="0.0248" stop-color="white"/>
<stop offset="1" stop-color="#27FFF9"/>
</linearGradient>
<linearGradient id="paint21_linear_613_2" x1="338.053" y1="221.504" x2="421.012" y2="269.113" gradientUnits="userSpaceOnUse">
<stop stop-color="white"/>
<stop offset="0.3709" stop-color="#27FFF9"/>
<stop offset="1"/>
</linearGradient>
<linearGradient id="paint22_linear_613_2" x1="272.938" y1="252.912" x2="189.978" y2="300.521" gradientUnits="userSpaceOnUse">
<stop stop-color="white"/>
<stop offset="0.3709" stop-color="#27FFF9"/>
<stop offset="1"/>
</linearGradient>
<linearGradient id="paint23_linear_613_2" x1="278.227" y1="139.926" x2="278.227" y2="66.6167" gradientUnits="userSpaceOnUse">
<stop stop-color="white"/>
<stop offset="0.3709" stop-color="#27FFF9"/>
<stop offset="1"/>
</linearGradient>
<linearGradient id="paint24_linear_613_2" x1="305.526" y1="342.697" x2="305.526" y2="416.007" gradientUnits="userSpaceOnUse">
<stop stop-color="white"/>
<stop offset="0.3709" stop-color="#27FFF9"/>
<stop offset="1"/>
</linearGradient>
<linearGradient id="paint25_linear_613_2" x1="356.954" y1="307.029" x2="439.915" y2="354.638" gradientUnits="userSpaceOnUse">
<stop stop-color="white"/>
<stop offset="0.3709" stop-color="#27FFF9"/>
<stop offset="1"/>
</linearGradient>
<linearGradient id="paint26_linear_613_2" x1="425.632" y1="247.931" x2="460.983" y2="268.219" gradientUnits="userSpaceOnUse">
<stop stop-color="white"/>
<stop offset="0.3709" stop-color="#27FFF9"/>
<stop offset="1"/>
</linearGradient>
<linearGradient id="paint27_linear_613_2" x1="283.411" y1="23.4776" x2="318.763" y2="43.7652" gradientUnits="userSpaceOnUse">
<stop stop-color="white"/>
<stop offset="0.3709" stop-color="#27FFF9"/>
<stop offset="1"/>
</linearGradient>
<linearGradient id="paint28_linear_613_2" x1="172.727" y1="52.8011" x2="136.988" y2="73.3113" gradientUnits="userSpaceOnUse">
<stop stop-color="white"/>
<stop offset="0.3709" stop-color="#27FFF9"/>
<stop offset="1"/>
</linearGradient>
<linearGradient id="paint29_linear_613_2" x1="439.982" y1="289.01" x2="444.853" y2="289.01" gradientUnits="userSpaceOnUse">
<stop stop-color="#FF9CC4"/>
<stop offset="1" stop-color="#CE19DD"/>
</linearGradient>
<linearGradient id="paint30_linear_613_2" x1="467.93" y1="305.442" x2="472.802" y2="305.442" gradientUnits="userSpaceOnUse">
<stop stop-color="#FF9CC4"/>
<stop offset="1" stop-color="#CE19DD"/>
</linearGradient>
<linearGradient id="paint31_linear_613_2" x1="495.881" y1="321.874" x2="500.754" y2="321.874" gradientUnits="userSpaceOnUse">
<stop stop-color="#FF9CC4"/>
<stop offset="1" stop-color="#CE19DD"/>
</linearGradient>
<linearGradient id="paint32_linear_613_2" x1="523.826" y1="338.307" x2="528.698" y2="338.307" gradientUnits="userSpaceOnUse">
<stop stop-color="#FF9CC4"/>
<stop offset="1" stop-color="#CE19DD"/>
</linearGradient>
<linearGradient id="paint33_linear_613_2" x1="89.4951" y1="244.964" x2="84.6223" y2="244.964" gradientUnits="userSpaceOnUse">
<stop stop-color="#FF9CC4"/>
<stop offset="1" stop-color="#CE19DD"/>
</linearGradient>
<linearGradient id="paint34_linear_613_2" x1="61.547" y1="261.398" x2="56.6758" y2="261.398" gradientUnits="userSpaceOnUse">
<stop stop-color="#FF9CC4"/>
<stop offset="1" stop-color="#CE19DD"/>
</linearGradient>
<linearGradient id="paint35_linear_613_2" x1="33.5967" y1="277.829" x2="28.7228" y2="277.829" gradientUnits="userSpaceOnUse">
<stop stop-color="#FF9CC4"/>
<stop offset="1" stop-color="#CE19DD"/>
</linearGradient>
<linearGradient id="paint36_linear_613_2" x1="5.64854" y1="294.263" x2="0.776125" y2="294.263" gradientUnits="userSpaceOnUse">
<stop stop-color="#FF9CC4"/>
<stop offset="1" stop-color="#CE19DD"/>
</linearGradient>
<linearGradient id="paint37_linear_613_2" x1="396.757" y1="374.03" x2="391.884" y2="374.03" gradientUnits="userSpaceOnUse">
<stop stop-color="#FF9CC4"/>
<stop offset="1" stop-color="#CE19DD"/>
</linearGradient>
<linearGradient id="paint38_linear_613_2" x1="368.809" y1="390.463" x2="363.938" y2="390.463" gradientUnits="userSpaceOnUse">
<stop stop-color="#FF9CC4"/>
<stop offset="1" stop-color="#CE19DD"/>
</linearGradient>
<linearGradient id="paint39_linear_613_2" x1="340.859" y1="406.895" x2="335.985" y2="406.895" gradientUnits="userSpaceOnUse">
<stop stop-color="#FF9CC4"/>
<stop offset="1" stop-color="#CE19DD"/>
</linearGradient>
<linearGradient id="paint40_linear_613_2" x1="312.911" y1="423.327" x2="308.038" y2="423.327" gradientUnits="userSpaceOnUse">
<stop stop-color="#FF9CC4"/>
<stop offset="1" stop-color="#CE19DD"/>
</linearGradient>
<linearGradient id="paint41_linear_613_2" x1="105.947" y1="241.195" x2="128.552" y2="241.195" gradientUnits="userSpaceOnUse">
<stop stop-color="#E7358A"/>
<stop offset="1" stop-color="#EC6D1C"/>
</linearGradient>
<linearGradient id="paint42_linear_613_2" x1="239.57" y1="86.4956" x2="214.399" y2="86.4956" gradientUnits="userSpaceOnUse">
<stop stop-color="#E7358A"/>
<stop offset="1" stop-color="#EC6D1C"/>
</linearGradient>
<linearGradient id="paint43_linear_613_2" x1="143.887" y1="307.641" x2="178.27" y2="348.211" gradientUnits="userSpaceOnUse">
<stop stop-color="#3B73FF"/>
<stop offset="1"/>
</linearGradient>
<linearGradient id="paint44_linear_613_2" x1="136.34" y1="313.403" x2="173.372" y2="348.847" gradientUnits="userSpaceOnUse">
<stop stop-color="#C60076"/>
<stop offset="1"/>
</linearGradient>
<linearGradient id="paint45_linear_613_2" x1="404.778" y1="82.0529" x2="404.57" y2="82.0529" gradientUnits="userSpaceOnUse">
<stop stop-color="#FA39FF"/>
<stop offset="1" stop-color="#FF57B3"/>
</linearGradient>
<linearGradient id="paint46_linear_613_2" x1="404.54" y1="81.9521" x2="404.344" y2="81.9521" gradientUnits="userSpaceOnUse">
<stop stop-color="#FA39FF"/>
<stop offset="1" stop-color="#FF57B3"/>
</linearGradient>
<linearGradient id="paint47_linear_613_2" x1="403.848" y1="81.6409" x2="403.698" y2="81.6409" gradientUnits="userSpaceOnUse">
<stop stop-color="#FA39FF"/>
<stop offset="1" stop-color="#FF57B3"/>
</linearGradient>
<linearGradient id="paint48_linear_613_2" x1="403.142" y1="81.3045" x2="403.081" y2="81.3045" gradientUnits="userSpaceOnUse">
<stop stop-color="#FA39FF"/>
<stop offset="1" stop-color="#FF57B3"/>
</linearGradient>
<linearGradient id="paint49_linear_613_2" x1="402.699" y1="81.0653" x2="402.647" y2="81.0653" gradientUnits="userSpaceOnUse">
<stop stop-color="#FA39FF"/>
<stop offset="1" stop-color="#FF57B3"/>
</linearGradient>
<linearGradient id="paint50_linear_613_2" x1="404.305" y1="81.8398" x2="404.079" y2="81.8398" gradientUnits="userSpaceOnUse">
<stop stop-color="#FA39FF"/>
<stop offset="1" stop-color="#FF57B3"/>
</linearGradient>
<linearGradient id="paint51_linear_613_2" x1="403.591" y1="81.5309" x2="403.505" y2="81.5309" gradientUnits="userSpaceOnUse">
<stop stop-color="#FA39FF"/>
<stop offset="1" stop-color="#FF57B3"/>
</linearGradient>
<linearGradient id="paint52_linear_613_2" x1="402.866" y1="73.733" x2="402.752" y2="73.733" gradientUnits="userSpaceOnUse">
<stop stop-color="#FA39FF"/>
<stop offset="1" stop-color="#FF57B3"/>
</linearGradient>
<linearGradient id="paint53_linear_613_2" x1="399.417" y1="52.1079" x2="397.82" y2="71.9982" gradientUnits="userSpaceOnUse">
<stop stop-color="#39D5FF"/>
<stop offset="1" stop-color="#3B73FF"/>
</linearGradient>
<linearGradient id="paint54_linear_613_2" x1="393.322" y1="89.3693" x2="393.113" y2="89.3693" gradientUnits="userSpaceOnUse">
<stop stop-color="#FA39FF"/>
<stop offset="1" stop-color="#FF57B3"/>
</linearGradient>
<linearGradient id="paint55_linear_613_2" x1="393.084" y1="89.2681" x2="392.887" y2="89.2681" gradientUnits="userSpaceOnUse">
<stop stop-color="#FA39FF"/>
<stop offset="1" stop-color="#FF57B3"/>
</linearGradient>
<linearGradient id="paint56_linear_613_2" x1="392.393" y1="88.9582" x2="392.243" y2="88.9582" gradientUnits="userSpaceOnUse">
<stop stop-color="#FA39FF"/>
<stop offset="1" stop-color="#FF57B3"/>
</linearGradient>
<linearGradient id="paint57_linear_613_2" x1="391.687" y1="88.6207" x2="391.626" y2="88.6207" gradientUnits="userSpaceOnUse">
<stop stop-color="#FA39FF"/>
<stop offset="1" stop-color="#FF57B3"/>
</linearGradient>
<linearGradient id="paint58_linear_613_2" x1="391.245" y1="88.3806" x2="391.193" y2="88.3806" gradientUnits="userSpaceOnUse">
<stop stop-color="#FA39FF"/>
<stop offset="1" stop-color="#FF57B3"/>
</linearGradient>
<linearGradient id="paint59_linear_613_2" x1="408.175" y1="69.8052" x2="391.133" y2="69.8052" gradientUnits="userSpaceOnUse">
<stop stop-color="#FA39FF"/>
<stop offset="1" stop-color="#FF57B3"/>
</linearGradient>
<linearGradient id="paint60_linear_613_2" x1="392.851" y1="89.156" x2="392.624" y2="89.156" gradientUnits="userSpaceOnUse">
<stop stop-color="#FA39FF"/>
<stop offset="1" stop-color="#FF57B3"/>
</linearGradient>
<linearGradient id="paint61_linear_613_2" x1="392.136" y1="88.8464" x2="392.051" y2="88.8464" gradientUnits="userSpaceOnUse">
<stop stop-color="#FA39FF"/>
<stop offset="1" stop-color="#FF57B3"/>
</linearGradient>
<linearGradient id="paint62_linear_613_2" x1="391.411" y1="81.0491" x2="391.298" y2="81.0491" gradientUnits="userSpaceOnUse">
<stop stop-color="#FA39FF"/>
<stop offset="1" stop-color="#FF57B3"/>
</linearGradient>
<linearGradient id="paint63_linear_613_2" x1="387.962" y1="59.424" x2="386.365" y2="79.3145" gradientUnits="userSpaceOnUse">
<stop stop-color="#F6A509"/>
<stop offset="0.7491" stop-color="#E84E1B"/>
</linearGradient>
</defs>
</svg>
